<svg aria-hidden="true" style="position: absolute; width: 0; height: 0; overflow: hidden;" version="1.1" xmlns="http://www.w3.org/2000/svg" xmlns:xlink="http://www.w3.org/1999/xlink">
<defs>

<symbol id="icon-menu" viewBox="0 0 31 32">
<path d="M5.215 22.87v-1.304h20.859v1.304h-20.859zM5.215 16.652v-1.304h20.859v1.304h-20.859zM5.215 10.434v-1.304h20.859v1.304h-20.859z"></path>
</symbol>

<symbol id="icon-hero-arrow" viewBox="0 0 18 32">
<path fill="#e9a572" style="fill: var(--color1, #e9a572)" d="M8.050 31.661c0.452 0.452 1.184 0.452 1.636 0l7.361-7.361c0.452-0.452 0.452-1.184 0-1.636s-1.184-0.452-1.636 0l-6.543 6.543-6.543-6.543c-0.452-0.452-1.184-0.452-1.636 0s-0.452 1.184 0 1.636l7.361 7.361zM7.711 0v30.843h2.313v-30.843h-2.313z"></path>
</symbol>


<symbol id="icon-logo" viewBox="0 0 55 32">
<path fill="#dbd2c7" style="fill: var(--color1, #dbd2c7)" d="M27.488 21.757l-0.794 2.654h-0.443l-0.579-2.279c-0.019-0.075-0.049-0.13-0.088-0.166-0.039-0.039-0.088-0.065-0.146-0.078-0.055-0.016-0.122-0.024-0.2-0.024h-0.034v-0.268h1.217v0.268h-0.039c-0.078 0-0.149 0.002-0.214 0.005-0.062 0-0.112 0.003-0.151 0.010-0.036 0.003-0.054 0.011-0.054 0.024l0.599 2.386-0.073-0.088 0.755-2.605h0.429l0.745 2.693-0.068-0.088 0.589-2.24c0-0.016-0.019-0.032-0.058-0.049-0.036-0.016-0.084-0.028-0.146-0.034-0.062-0.010-0.128-0.015-0.2-0.015h-0.039v-0.268h1.164v0.268h-0.034c-0.078 0-0.146 0.008-0.205 0.024-0.055 0.013-0.101 0.039-0.136 0.078s-0.065 0.096-0.088 0.17l-0.633 2.274h-0.443l-0.73-2.6 0.097-0.054zM30.328 23.004c0 0.221 0.024 0.404 0.073 0.55s0.117 0.261 0.205 0.346c0.088 0.081 0.188 0.14 0.302 0.175 0.117 0.036 0.243 0.054 0.38 0.054 0.149 0 0.276-0.021 0.38-0.063 0.107-0.042 0.198-0.099 0.273-0.17 0.078-0.075 0.145-0.157 0.2-0.248l0.224 0.156c-0.065 0.123-0.153 0.232-0.263 0.326-0.107 0.091-0.23 0.161-0.37 0.209-0.136 0.049-0.287 0.073-0.453 0.073-0.247 0-0.472-0.052-0.677-0.156-0.201-0.107-0.36-0.265-0.477-0.472-0.117-0.211-0.175-0.471-0.175-0.779 0-0.292 0.052-0.547 0.156-0.765 0.104-0.221 0.25-0.391 0.438-0.511s0.407-0.18 0.657-0.18c0.198 0 0.369 0.032 0.511 0.097 0.146 0.065 0.265 0.162 0.355 0.292s0.159 0.291 0.205 0.482c0.045 0.192 0.070 0.414 0.073 0.667h-2.118v-0.258h1.846l-0.107 0.093c-0.010-0.208-0.029-0.381-0.058-0.521-0.029-0.143-0.073-0.255-0.131-0.336-0.058-0.084-0.135-0.145-0.229-0.18-0.091-0.036-0.206-0.054-0.346-0.054-0.136 0-0.26 0.023-0.37 0.068-0.107 0.045-0.198 0.115-0.273 0.209-0.071 0.094-0.128 0.216-0.17 0.365-0.039 0.149-0.058 0.326-0.058 0.531zM34.452 24.411c-0.153 0-0.292-0.029-0.419-0.088-0.127-0.062-0.242-0.148-0.346-0.258-0.101-0.11-0.192-0.242-0.273-0.394l0.034-0.195c0.088 0.136 0.178 0.253 0.273 0.351s0.196 0.17 0.307 0.219c0.114 0.049 0.242 0.073 0.385 0.073s0.268-0.023 0.375-0.068c0.107-0.049 0.196-0.12 0.268-0.214 0.071-0.097 0.125-0.219 0.161-0.365s0.054-0.317 0.054-0.511c0-0.188-0.016-0.352-0.049-0.492-0.029-0.14-0.076-0.256-0.141-0.351-0.062-0.094-0.145-0.164-0.248-0.209-0.101-0.049-0.222-0.073-0.365-0.073s-0.273 0.023-0.39 0.068c-0.114 0.045-0.222 0.115-0.326 0.209-0.101 0.094-0.203 0.211-0.307 0.351l-0.024-0.185c0.097-0.153 0.2-0.282 0.307-0.39 0.11-0.11 0.23-0.195 0.36-0.253s0.273-0.088 0.429-0.088c0.256 0 0.469 0.060 0.638 0.18 0.172 0.117 0.3 0.281 0.385 0.492s0.127 0.458 0.127 0.74c0 0.279-0.047 0.527-0.141 0.745-0.091 0.218-0.227 0.39-0.409 0.516s-0.403 0.19-0.662 0.19zM33.133 21.041c0-0.049-0.015-0.084-0.044-0.107-0.029-0.026-0.073-0.047-0.131-0.063s-0.131-0.032-0.219-0.049l-0.049-0.010v-0.263h0.813v3.194l-0.122 0.706h-0.248v-3.409zM35.891 24.825h2.722v0.263h-2.722v-0.263zM38.822 24.348v-0.229h0.019c0.136 0 0.24-0.024 0.312-0.073 0.075-0.052 0.112-0.151 0.112-0.297v-1.661c0-0.049-0.015-0.084-0.044-0.107-0.029-0.026-0.073-0.047-0.131-0.063s-0.131-0.032-0.219-0.049l-0.049-0.010v-0.263h0.701l0.112 0.599v1.875c0 0.010 0.019 0.019 0.058 0.029 0.039 0.006 0.086 0.011 0.141 0.015s0.106 0.005 0.151 0.005h0.024v0.229h-1.188zM41.666 24.348h-1.12v-0.229h0.024c0.045 0 0.096-0.002 0.151-0.005s0.102-0.008 0.141-0.015c0.039-0.010 0.058-0.019 0.058-0.029v-1.792c0-0.094-0.015-0.172-0.044-0.234-0.026-0.065-0.070-0.114-0.131-0.146s-0.145-0.049-0.248-0.049c-0.107 0-0.211 0.023-0.312 0.068-0.097 0.042-0.198 0.107-0.302 0.195-0.101 0.084-0.208 0.192-0.321 0.321l-0.010-0.2c0.11-0.146 0.222-0.269 0.336-0.37 0.114-0.104 0.232-0.183 0.355-0.239 0.127-0.055 0.258-0.083 0.394-0.083 0.149 0 0.271 0.028 0.365 0.083 0.097 0.052 0.169 0.13 0.214 0.234 0.049 0.101 0.073 0.224 0.073 0.37v1.841c0 0.010 0.019 0.019 0.058 0.029 0.039 0.006 0.086 0.011 0.141 0.015s0.106 0.005 0.151 0.005h0.024v0.229zM43.389 24.348h-1.188v-0.229h0.024c0.045 0 0.096-0.002 0.151-0.005s0.102-0.008 0.141-0.015c0.039-0.010 0.058-0.019 0.058-0.029v-1.792c0-0.094-0.015-0.172-0.044-0.234-0.026-0.065-0.070-0.114-0.131-0.146s-0.145-0.049-0.248-0.049c-0.107 0-0.211 0.023-0.312 0.068-0.097 0.042-0.198 0.107-0.302 0.195-0.101 0.084-0.208 0.192-0.321 0.321l-0.010-0.2c0.11-0.146 0.222-0.269 0.336-0.37 0.114-0.104 0.232-0.183 0.355-0.239 0.127-0.055 0.258-0.083 0.394-0.083 0.149 0 0.271 0.028 0.365 0.083 0.097 0.052 0.169 0.13 0.214 0.234 0.049 0.101 0.073 0.224 0.073 0.37v1.519c0 0.146 0.036 0.245 0.107 0.297 0.075 0.049 0.18 0.073 0.317 0.073h0.019v0.229zM46.44 22.979c0 0.302-0.054 0.56-0.161 0.774-0.104 0.214-0.255 0.378-0.453 0.492-0.195 0.11-0.43 0.166-0.706 0.166s-0.513-0.055-0.711-0.166c-0.195-0.114-0.346-0.278-0.453-0.492-0.104-0.214-0.156-0.472-0.156-0.774 0-0.227 0.029-0.429 0.088-0.604 0.058-0.179 0.145-0.33 0.258-0.453 0.117-0.123 0.257-0.216 0.419-0.278 0.162-0.065 0.347-0.097 0.555-0.097s0.393 0.032 0.555 0.097c0.162 0.062 0.3 0.154 0.414 0.278 0.117 0.123 0.205 0.274 0.263 0.453 0.058 0.175 0.088 0.377 0.088 0.604zM44.195 22.979c0 0.273 0.032 0.493 0.097 0.662 0.065 0.166 0.166 0.289 0.302 0.37 0.136 0.078 0.312 0.117 0.526 0.117 0.218 0 0.393-0.039 0.526-0.117 0.136-0.078 0.237-0.201 0.302-0.37s0.097-0.39 0.097-0.662c0-0.256-0.032-0.469-0.097-0.638s-0.166-0.295-0.302-0.38c-0.133-0.088-0.308-0.131-0.526-0.131-0.214 0-0.39 0.044-0.526 0.131-0.136 0.084-0.237 0.211-0.302 0.38s-0.097 0.381-0.097 0.638zM49.055 21.962c0.003-0.016-0.015-0.032-0.054-0.049s-0.088-0.028-0.146-0.034c-0.058-0.010-0.123-0.015-0.195-0.015h-0.039v-0.268h1.154v0.268h-0.034c-0.078 0-0.144 0.008-0.2 0.024-0.052 0.013-0.097 0.039-0.136 0.078-0.036 0.039-0.066 0.096-0.093 0.17l-0.862 2.274h-0.433l-0.823-2.279c-0.026-0.075-0.058-0.13-0.097-0.166-0.039-0.039-0.086-0.065-0.141-0.078-0.052-0.016-0.117-0.024-0.195-0.024h-0.034v-0.268h1.208v0.268h-0.039c-0.071 0-0.14 0.002-0.205 0.005-0.062 0-0.112 0.003-0.151 0.010-0.036 0.003-0.054 0.011-0.054 0.024l0.842 2.386-0.083-0.088 0.808-2.24zM51.91 22.663v0.253c-0.247 0.036-0.454 0.073-0.623 0.112-0.166 0.039-0.302 0.081-0.409 0.127-0.104 0.042-0.183 0.089-0.239 0.141-0.052 0.052-0.089 0.11-0.112 0.175-0.019 0.062-0.029 0.13-0.029 0.205 0 0.11 0.019 0.2 0.058 0.268 0.042 0.068 0.101 0.118 0.175 0.151 0.078 0.029 0.17 0.044 0.278 0.044 0.117 0 0.222-0.023 0.317-0.068 0.094-0.049 0.188-0.122 0.282-0.219s0.193-0.222 0.297-0.375l0.005 0.219c-0.081 0.143-0.17 0.268-0.268 0.375-0.094 0.107-0.198 0.19-0.312 0.248s-0.242 0.088-0.385 0.088c-0.175 0-0.325-0.026-0.448-0.078-0.123-0.055-0.217-0.136-0.282-0.243-0.062-0.107-0.093-0.243-0.093-0.409 0-0.136 0.028-0.256 0.083-0.36s0.149-0.195 0.282-0.273c0.133-0.078 0.315-0.148 0.545-0.209s0.523-0.118 0.877-0.17zM51.964 24.348l-0.107-0.609v-1.432c0-0.114-0.016-0.206-0.049-0.278-0.029-0.071-0.088-0.123-0.175-0.156-0.088-0.036-0.214-0.054-0.38-0.054-0.208 0-0.383 0.019-0.526 0.058-0.143 0.036-0.247 0.071-0.312 0.107-0.003-0.013 0-0.029 0.010-0.049s0.026-0.039 0.049-0.058c0.023-0.019 0.049-0.034 0.078-0.044 0.029-0.013 0.063-0.018 0.102-0.015v0.633h-0.385v-0.677c0.049-0.032 0.119-0.065 0.209-0.097 0.094-0.036 0.206-0.067 0.336-0.093 0.133-0.026 0.281-0.039 0.443-0.039 0.153 0 0.289 0.013 0.409 0.039 0.12 0.023 0.221 0.062 0.302 0.117 0.084 0.055 0.149 0.127 0.195 0.214s0.068 0.193 0.068 0.317v1.622c0 0.045 0.015 0.081 0.044 0.107s0.073 0.047 0.131 0.063c0.058 0.013 0.131 0.029 0.219 0.049l0.049 0.010v0.263h-0.711zM30.332 29.187c0-0.094-0.021-0.172-0.063-0.234s-0.101-0.11-0.175-0.146c-0.071-0.036-0.153-0.065-0.243-0.088-0.091-0.026-0.185-0.049-0.282-0.068-0.11-0.023-0.221-0.050-0.331-0.083-0.107-0.032-0.205-0.076-0.292-0.131-0.088-0.058-0.157-0.133-0.209-0.224-0.052-0.094-0.078-0.213-0.078-0.355 0-0.153 0.039-0.284 0.117-0.394 0.081-0.11 0.196-0.196 0.346-0.258s0.33-0.093 0.541-0.093c0.159 0 0.299 0.008 0.419 0.024 0.123 0.013 0.226 0.031 0.307 0.054 0.084 0.019 0.148 0.037 0.19 0.054v0.657h-0.39v-0.541c0.026 0.003 0.049 0.008 0.068 0.015s0.036 0.018 0.049 0.034c0.016 0.013 0.031 0.031 0.044 0.054s0.023 0.052 0.029 0.088c-0.045-0.036-0.104-0.065-0.175-0.088-0.071-0.026-0.153-0.045-0.243-0.058s-0.19-0.019-0.297-0.019c-0.23 0-0.398 0.037-0.502 0.112-0.101 0.075-0.151 0.182-0.151 0.321 0 0.094 0.018 0.17 0.054 0.229 0.039 0.058 0.093 0.106 0.161 0.141 0.071 0.032 0.154 0.062 0.248 0.088 0.094 0.023 0.193 0.045 0.297 0.068 0.11 0.023 0.221 0.052 0.331 0.088 0.11 0.032 0.209 0.078 0.297 0.136 0.088 0.055 0.157 0.131 0.209 0.229 0.055 0.094 0.083 0.213 0.083 0.355 0 0.159-0.039 0.302-0.117 0.429-0.075 0.123-0.192 0.221-0.351 0.292-0.159 0.068-0.359 0.102-0.599 0.102-0.156 0-0.3-0.010-0.433-0.029-0.13-0.019-0.245-0.045-0.346-0.078-0.101-0.036-0.185-0.071-0.253-0.107v-0.691h0.394v0.711c-0.045-0.019-0.081-0.039-0.107-0.058-0.026-0.023-0.044-0.045-0.054-0.068s-0.016-0.045-0.019-0.068c-0.003-0.023-0.003-0.045 0-0.068 0.049 0.023 0.112 0.049 0.19 0.078 0.081 0.029 0.175 0.055 0.282 0.078 0.107 0.019 0.222 0.029 0.346 0.029 0.166 0 0.3-0.018 0.404-0.054 0.104-0.039 0.18-0.096 0.229-0.17 0.052-0.078 0.078-0.175 0.078-0.292zM33.843 28.545c0 0.302-0.054 0.56-0.161 0.774-0.104 0.214-0.255 0.378-0.453 0.492-0.195 0.11-0.43 0.166-0.706 0.166s-0.513-0.055-0.711-0.166c-0.195-0.114-0.346-0.278-0.453-0.492-0.104-0.214-0.156-0.472-0.156-0.774 0-0.227 0.029-0.429 0.088-0.604 0.058-0.179 0.145-0.33 0.258-0.453 0.117-0.123 0.256-0.216 0.419-0.278 0.162-0.065 0.347-0.097 0.555-0.097s0.393 0.032 0.555 0.097c0.162 0.062 0.3 0.154 0.414 0.278 0.117 0.123 0.205 0.274 0.263 0.453 0.058 0.175 0.088 0.377 0.088 0.604zM31.598 28.545c0 0.273 0.032 0.493 0.097 0.662 0.065 0.166 0.166 0.289 0.302 0.37 0.136 0.078 0.312 0.117 0.526 0.117 0.218 0 0.393-0.039 0.526-0.117 0.136-0.078 0.237-0.201 0.302-0.37s0.097-0.39 0.097-0.662c0-0.256-0.032-0.469-0.097-0.638s-0.166-0.295-0.302-0.38c-0.133-0.088-0.308-0.131-0.526-0.131-0.214 0-0.39 0.044-0.526 0.131-0.136 0.084-0.237 0.211-0.302 0.38s-0.097 0.381-0.097 0.638zM35.151 26.115v3.233c0 0.133 0.036 0.222 0.107 0.268 0.075 0.045 0.18 0.068 0.317 0.068h0.019v0.229h-1.256v-0.229h0.024c0.136 0 0.24-0.023 0.312-0.068 0.075-0.045 0.112-0.135 0.112-0.268v-2.742c0-0.049-0.015-0.084-0.044-0.107-0.029-0.026-0.075-0.047-0.136-0.063-0.058-0.016-0.131-0.032-0.219-0.049l-0.049-0.010v-0.263h0.813zM36.781 27.162v2.070c0 0.091 0.015 0.169 0.044 0.234 0.029 0.062 0.076 0.11 0.141 0.146 0.068 0.032 0.157 0.049 0.268 0.049 0.107 0 0.213-0.023 0.317-0.068 0.107-0.045 0.214-0.114 0.321-0.205s0.217-0.206 0.331-0.346l0.010 0.18c-0.107 0.159-0.221 0.294-0.341 0.404-0.117 0.11-0.242 0.195-0.375 0.253-0.13 0.058-0.265 0.088-0.404 0.088-0.153 0-0.281-0.026-0.385-0.078-0.101-0.055-0.177-0.135-0.229-0.239-0.049-0.104-0.073-0.227-0.073-0.37v-1.587c0-0.094-0.034-0.159-0.102-0.195-0.065-0.039-0.166-0.063-0.302-0.073l-0.068-0.005v-0.258h0.847zM38.495 27.162v2.259c0 0.045 0.015 0.081 0.044 0.107 0.032 0.026 0.078 0.047 0.136 0.063 0.062 0.016 0.133 0.032 0.214 0.049l0.049 0.010v0.263h-0.696l-0.117-0.638v-1.583c0-0.094-0.034-0.161-0.102-0.2s-0.169-0.062-0.302-0.068l-0.112-0.005v-0.258h0.886zM39.213 27.434v-0.248h0.083c0.12 0 0.219-0.008 0.297-0.024s0.136-0.052 0.175-0.107c0.042-0.058 0.063-0.145 0.063-0.258l0.263 0.365h1.042v0.273h-1.923zM40.178 29.212c0 0.127 0.019 0.224 0.058 0.292 0.042 0.068 0.104 0.114 0.185 0.136s0.182 0.034 0.302 0.034c0.094 0 0.183-0.005 0.268-0.015s0.133-0.016 0.146-0.019v0.278c-0.039 0.010-0.086 0.018-0.141 0.024-0.055 0.010-0.114 0.016-0.175 0.019-0.058 0.006-0.114 0.010-0.166 0.010-0.156 0-0.299-0.019-0.429-0.058-0.127-0.036-0.229-0.107-0.307-0.214-0.078-0.11-0.117-0.271-0.117-0.482v-1.992l0.029-0.044v-0.833h0.346v2.863zM42.197 26.602c-0.094 0-0.17-0.024-0.229-0.073-0.055-0.049-0.083-0.128-0.083-0.239 0-0.104 0.028-0.18 0.083-0.229 0.058-0.049 0.135-0.073 0.229-0.073 0.091 0 0.166 0.024 0.224 0.073 0.062 0.049 0.093 0.125 0.093 0.229 0 0.11-0.031 0.19-0.093 0.239-0.058 0.049-0.133 0.073-0.224 0.073zM42.441 27.162v2.186c0 0.133 0.036 0.222 0.107 0.268 0.075 0.045 0.18 0.068 0.317 0.068h0.019v0.229h-1.256v-0.229h0.024c0.136 0 0.24-0.023 0.312-0.068 0.075-0.045 0.112-0.135 0.112-0.268v-1.695c0-0.071-0.034-0.118-0.102-0.141-0.065-0.026-0.164-0.052-0.297-0.078l-0.049-0.010v-0.263h0.813zM45.955 28.545c0 0.302-0.054 0.56-0.161 0.774-0.104 0.214-0.255 0.378-0.453 0.492-0.195 0.11-0.43 0.166-0.706 0.166s-0.513-0.055-0.711-0.166c-0.195-0.114-0.346-0.278-0.453-0.492-0.104-0.214-0.156-0.472-0.156-0.774 0-0.227 0.029-0.429 0.088-0.604 0.058-0.179 0.144-0.33 0.258-0.453 0.117-0.123 0.256-0.216 0.419-0.278 0.162-0.065 0.347-0.097 0.555-0.097s0.393 0.032 0.555 0.097c0.162 0.062 0.3 0.154 0.414 0.278 0.117 0.123 0.205 0.274 0.263 0.453 0.058 0.175 0.088 0.377 0.088 0.604zM43.71 28.545c0 0.273 0.032 0.493 0.097 0.662 0.065 0.166 0.166 0.289 0.302 0.37 0.136 0.078 0.312 0.117 0.526 0.117 0.217 0 0.393-0.039 0.526-0.117 0.136-0.078 0.237-0.201 0.302-0.37s0.097-0.39 0.097-0.662c0-0.256-0.032-0.469-0.097-0.638s-0.166-0.295-0.302-0.38c-0.133-0.088-0.308-0.131-0.526-0.131-0.214 0-0.39 0.044-0.526 0.131-0.136 0.084-0.237 0.211-0.302 0.38s-0.097 0.381-0.097 0.638zM46.43 29.913v-0.229h0.019c0.091 0 0.167-0.010 0.229-0.029 0.065-0.023 0.114-0.060 0.146-0.112 0.032-0.055 0.049-0.131 0.049-0.229v-1.661c0-0.049-0.015-0.084-0.044-0.107-0.029-0.026-0.073-0.047-0.131-0.063s-0.131-0.032-0.219-0.049l-0.049-0.010v-0.263h0.701l0.112 0.609 0.005 0.015v1.85c0 0.010 0.019 0.019 0.058 0.029 0.039 0.006 0.086 0.011 0.141 0.015s0.105 0.005 0.151 0.005h0.024v0.229h-1.193zM49.445 29.913h-1.188v-0.229h0.024c0.045 0 0.096-0.002 0.151-0.005s0.102-0.008 0.141-0.015c0.039-0.010 0.058-0.019 0.058-0.029v-1.792c0-0.094-0.016-0.172-0.049-0.234-0.029-0.062-0.078-0.109-0.146-0.141-0.068-0.036-0.161-0.054-0.278-0.054-0.11 0-0.221 0.023-0.331 0.068-0.107 0.042-0.214 0.107-0.321 0.195s-0.218 0.201-0.331 0.341l-0.010-0.175c0.104-0.159 0.216-0.292 0.336-0.399 0.12-0.11 0.247-0.193 0.38-0.248 0.136-0.058 0.276-0.088 0.419-0.088 0.159 0 0.289 0.028 0.39 0.083 0.104 0.052 0.182 0.13 0.234 0.234 0.052 0.101 0.078 0.224 0.078 0.37v1.519c0 0.097 0.016 0.174 0.049 0.229 0.032 0.052 0.080 0.089 0.141 0.112 0.065 0.019 0.143 0.029 0.234 0.029h0.019v0.229z"></path>
<path fill="#fb9a53" style="fill: var(--color2, #fb9a53)" d="M46.006 18.374c-0.301 0-0.501-0.075-0.601-0.225-0.301-0.434-0.451-0.96-0.451-1.578 0-1.436 0.768-3.498 2.304-6.186 0.985-1.686 2.504-3.957 4.558-6.812-0.868 0.718-1.811 1.544-2.83 2.479s-2.112 1.97-3.281 3.105c-1.519 1.486-2.763 2.797-3.731 3.932-0.952 1.119-1.636 2.045-2.054 2.78-0.434 0.785-0.96 1.177-1.578 1.177-0.284 0-0.426-0.1-0.426-0.301 0-0.067 0.025-0.134 0.075-0.2 0.284-0.451 0.651-1.043 1.102-1.778 0.451-0.751 0.985-1.645 1.603-2.68 1.803-3.139 3.097-5.635 3.882-7.488 0.284-0.701 0.426-1.21 0.426-1.528 0-0.267-0.092-0.401-0.275-0.401-0.25 0-0.643 0.225-1.177 0.676-1.853 1.553-3.932 3.715-6.236 6.486-0.968 1.152-1.82 2.221-2.554 3.206-0.718 0.968-1.327 1.845-1.828 2.63-0.401 0.618-0.601 1.060-0.601 1.327 0 0.1 0.033 0.167 0.1 0.2 0.083 0.050 0.125 0.075 0.125 0.075 0 0.017-0.15 0.142-0.451 0.376-0.267 0.134-0.568 0.2-0.902 0.2-0.685 0-0.977-0.159-0.877-0.476 0.234-0.751 1.010-2.112 2.329-4.082 1.72-2.554 2.838-4.299 3.356-5.234 1.119-2.020 1.678-3.631 1.678-4.833 0-0.835-0.217-1.427-0.651-1.778s-1.094-0.526-1.978-0.526c-1.953 0-3.974 0.843-6.061 2.529-0.902 0.735-1.745 1.569-2.529 2.504-0.785 0.918-1.419 1.878-1.903 2.88s-0.726 1.987-0.726 2.955c0 1.736 0.818 2.605 2.454 2.605 1.92 0 3.406-0.693 4.458-2.079 0.401-0.551 0.601-1.069 0.601-1.553 0-0.284-0.083-0.476-0.25-0.576-0.017-0.017-0.025-0.042-0.025-0.075 0-0.067 0.050-0.1 0.15-0.1 0.434 0 0.651 0.284 0.651 0.851 0 0.351-0.15 0.793-0.451 1.327-0.384 0.668-0.96 1.235-1.728 1.703-0.968 0.601-2.037 0.902-3.206 0.902-1.135 0-2.045-0.359-2.73-1.077s-1.027-1.661-1.027-2.83c0-2.638 1.72-5.334 5.159-8.089 0.634-0.501 1.386-0.927 2.254-1.277 0.885-0.367 1.795-0.643 2.73-0.826 0.935-0.2 1.795-0.301 2.579-0.301 1.135 0 1.995 0.192 2.579 0.576 0.601 0.367 0.902 1.018 0.902 1.953 0 1.169-0.476 2.746-1.427 4.733-0.301 0.618-0.977 1.745-2.029 3.381l1.928-2.454c0.484-0.634 1.135-1.386 1.953-2.254s1.786-1.853 2.905-2.955c0.484-0.467 1.035-0.868 1.653-1.202s1.144-0.501 1.578-0.501c0.601 0 0.902 0.317 0.902 0.952 0 0.551-0.225 1.302-0.676 2.254-0.601 1.269-1.352 2.746-2.254 4.433-0.284 0.518-0.476 0.96-0.576 1.327s-0.167 0.576-0.2 0.626c0.067-0.083 0.225-0.275 0.476-0.576 0.267-0.317 0.634-0.743 1.102-1.277 0.568-0.634 1.244-1.327 2.029-2.079 0.785-0.768 1.686-1.586 2.705-2.454l4.007-3.306c0.317-0.267 0.601-0.401 0.851-0.401 0.234 0 0.401 0.142 0.501 0.426 0.117 0.267 0.234 0.618 0.351 1.052 0.083 0.284-0.317 0.877-1.202 1.778-2.087 2.137-3.89 4.525-5.409 7.162-1.386 2.438-2.079 4.199-2.079 5.284 0 0.484 0.159 0.726 0.476 0.726 0.2 0 0.701-0.175 1.503-0.526 0.701-0.317 1.16-0.501 1.377-0.551 0.083 0.033 0.125 0.075 0.125 0.125 0 0.25-0.442 0.601-1.327 1.052-0.868 0.451-1.594 0.676-2.179 0.676z"></path>
<path fill="#e9a572" style="fill: var(--color3, #e9a572)" d="M5.538 23.674c-0.301 0-0.451-0.192-0.451-0.576 0-0.367 0.15-0.835 0.451-1.402l4.833-6.962c1.486-2.137 2.588-3.89 3.306-5.259s1.077-2.337 1.077-2.905c0-0.267-0.1-0.467-0.301-0.601s-0.434-0.225-0.701-0.275c-0.267-0.050-0.518-0.075-0.751-0.075-1.419 0-3.398 0.868-5.935 2.605-0.718 0.484-1.377 1.027-1.978 1.628s-1.16 1.244-1.678 1.928c-1.002 1.369-1.503 2.521-1.503 3.456 0 0.718 0.334 1.152 1.002 1.302 0.25 0.067 0.534 0.1 0.851 0.1 0.601 0 1.202-0.15 1.803-0.451s1.185-0.685 1.753-1.152c0.434-0.367 0.685-0.551 0.751-0.551s0.092 0.058 0.075 0.175c-0.1 0.351-0.342 0.685-0.726 1.002s-0.843 0.609-1.377 0.877c-0.534 0.25-1.077 0.451-1.628 0.601-0.534 0.134-1.010 0.2-1.427 0.2-0.668 0-1.252-0.167-1.753-0.501-0.501-0.351-0.751-0.86-0.751-1.528 0-1.018 0.593-2.271 1.778-3.757 1.135-1.436 2.538-2.713 4.207-3.832 0.684-0.467 1.486-0.91 2.404-1.327 0.918-0.434 1.845-0.785 2.78-1.052 0.935-0.284 1.77-0.426 2.504-0.426 1.319 0 1.978 0.434 1.978 1.302 0 1.052-0.793 2.863-2.379 5.434-1.119 1.77-2.596 3.873-4.433 6.311-1.519 2.020-2.287 3.030-2.304 3.030 0.050 0 0.851-0.86 2.404-2.579 0.952-1.069 1.845-2.020 2.68-2.855 0.851-0.851 1.636-1.594 2.354-2.229 0.351-0.317 0.776-0.71 1.277-1.177 0.501-0.484 1.085-1.043 1.753-1.678 0.584-0.534 1.152-1.018 1.703-1.453 0.568-0.434 1.085-0.651 1.553-0.651 0.484 0 0.801 0.117 0.952 0.351-1.536 1.903-2.972 4.232-4.307 6.987-0.952 1.97-1.427 3.464-1.427 4.483 0 0.601 0.159 1.035 0.476 1.302s0.735 0.401 1.252 0.401c0.568 0 1.16-0.159 1.778-0.476 0.634-0.317 1.261-0.726 1.878-1.227s1.194-1.027 1.728-1.578c1.92-1.937 3.448-4.032 4.583-6.286 0.885-1.77 1.327-3.181 1.327-4.232 0-0.1-0.008-0.192-0.025-0.275 0-0.083-0.008-0.159-0.025-0.225-0.351 0-0.726-0.184-1.127-0.551-0.25-0.2-0.376-0.409-0.376-0.626 0-0.2 0.083-0.367 0.25-0.501s0.359-0.2 0.576-0.2c0.317 0 0.551 0.142 0.701 0.426 0.067 0.134 0.2 0.301 0.401 0.501 0.134 0.134 0.192 0.234 0.175 0.301 0.1 0.15 0.267 0.225 0.501 0.225s0.451-0.1 0.651-0.301c0.217-0.2 0.451-0.301 0.701-0.301 0.134 0 0.2 0.050 0.2 0.15 0 0.184-0.159 0.359-0.476 0.526-0.167 0.117-0.367 0.192-0.601 0.225-0.134 0.017-0.267 0.033-0.401 0.050-0.134 0-0.267-0.017-0.401-0.050 0.2 0.668 0.301 1.16 0.301 1.478 0 1.336-0.634 3.064-1.903 5.184-0.634 1.069-1.361 2.079-2.179 3.030s-1.736 1.845-2.755 2.68c-2.020 1.703-3.815 2.554-5.384 2.554-1.72 0-2.579-0.801-2.579-2.404 0-0.751 0.159-1.603 0.476-2.554 0.317-0.968 0.693-1.928 1.127-2.88l1.803-3.932c-0.735 0.568-1.336 1.035-1.803 1.402-0.451 0.351-0.835 0.651-1.152 0.902-0.301 0.25-0.593 0.509-0.877 0.776-0.267 0.25-0.593 0.559-0.977 0.927-0.417 0.417-0.977 1.018-1.678 1.803-0.701 0.768-1.519 1.728-2.454 2.88l-2.905 3.556c-0.167 0.2-0.359 0.384-0.576 0.551s-0.434 0.25-0.651 0.25z"></path>
</symbol>

<symbol id="icon-icon-lang-button" viewBox="0 0 32 32">
<path d="M29.335 7.152l-13.333 12.121-13.333-12.121 2.367-2.152 10.967 9.97 10.967-9.97 2.367 2.152z"></path>
</symbol>
</defs>
</svg>