<svg aria-hidden="true" style="position: absolute; width: 0; height: 0; overflow: hidden;" version="1.1" xmlns="http://www.w3.org/2000/svg" xmlns:xlink="http://www.w3.org/1999/xlink">
<defs>

<symbol id="icon-rocket" viewBox="0 0 24 32">
<path fill="#650e68" style="fill: var(--color1, #650e68)" d="M6.762 21.057c0 0 1.227 1.688-0.069 3.075s-3.212 0.564-3.833 1.28c0.621-0.716-0.509-2.446 0.678-3.924s3.077-0.554 3.077-0.554z"></path>
<path fill="#efaf30" style="fill: var(--color2, #efaf30)" d="M6.396 21.331c-0.332-0.13-1.317-0.421-1.96 0.379-0.487 0.606-0.42 1.287-0.349 2.008 0.008 0.083 0.016 0.166 0.024 0.25 0.085-0.006 0.17-0.011 0.254-0.017 0.735-0.045 1.43-0.088 1.961-0.657 0.7-0.749 0.256-1.656 0.069-1.963z"></path>
<path fill="#ffec7b" style="fill: var(--color3, #ffec7b)" d="M6.282 21.464c-0.183-0.072-0.725-0.232-1.078 0.209-0.268 0.333-0.231 0.708-0.192 1.105 0.005 0.046 0.009 0.091 0.013 0.137 0.047-0.003 0.093-0.006 0.14-0.009 0.405-0.025 0.787-0.049 1.079-0.361 0.385-0.412 0.141-0.911 0.038-1.080z"></path>
<path fill="#060646" style="fill: var(--color4, #060646)" d="M2.8 25.622c-0.030-0.009-0.058-0.023-0.084-0.044-0.069-0.058-0.094-0.147-0.071-0.227 0.008-0.029 0.023-0.057 0.044-0.081 0.2-0.23 0.156-0.67 0.106-1.179-0.079-0.807-0.178-1.812 0.567-2.74 0.534-0.665 1.3-0.97 2.215-0.881 0.674 0.065 1.189 0.32 1.21 0.331 0.032 0.016 0.059 0.039 0.080 0.067 0.014 0.019 0.352 0.479 0.525 1.123 0.234 0.874 0.049 1.666-0.534 2.29-0.813 0.87-1.838 0.933-2.661 0.984-0.519 0.032-0.967 0.060-1.167 0.29-0.058 0.067-0.149 0.090-0.23 0.067zM6.104 21.009c-0.61-0.174-1.662-0.292-2.39 0.615-0.636 0.791-0.55 1.661-0.474 2.429 0.031 0.32 0.061 0.618 0.034 0.881 0.261-0.067 0.564-0.086 0.89-0.106 0.783-0.048 1.671-0.103 2.364-0.845 1.053-1.127 0.188-2.551 0.011-2.817-0.076-0.034-0.231-0.099-0.435-0.157z"></path>
<path fill="#060646" style="fill: var(--color4, #060646)" d="M3.030 25.554l-2.142 2.201c-0.038 0.039-0.104-0.013-0.069-0.058l1.87-2.428c0.197-0.234 0.546 0.056 0.341 0.286z"></path>
<path fill="#650e68" style="fill: var(--color1, #650e68)" d="M7.923 13.696c0 0-4.8-1.651-4.281 3.981 0 0 1.331-2.335 3.448-1.376l0.833-2.605z"></path>
<path fill="#fff" style="fill: var(--color5, #fff)" opacity="0.6" d="M7.767 14.183l0.156-0.488c0 0-4.8-1.651-4.281 3.981 0 0 0.005-0.009 0.016-0.026-0.128-4.298 3.233-3.696 4.109-3.467z"></path>
<path fill="#060646" style="fill: var(--color4, #060646)" d="M3.582 17.886c-0.089-0.025-0.154-0.102-0.162-0.193-0.172-1.864 0.209-3.165 1.133-3.868 1.359-1.035 3.357-0.365 3.442-0.336 0.115 0.039 0.177 0.161 0.141 0.274l-0.833 2.605c-0.019 0.059-0.063 0.108-0.121 0.133s-0.125 0.024-0.183-0.002c-0.792-0.359-1.558-0.26-2.277 0.294-0.56 0.431-0.882 0.986-0.885 0.992-0.048 0.083-0.145 0.126-0.241 0.105-0.005-0.001-0.009-0.002-0.014-0.003zM7.642 13.842c-0.518-0.132-1.881-0.382-2.815 0.331-0.696 0.531-1.031 1.495-0.999 2.868 0.156-0.185 0.359-0.394 0.605-0.585 0.782-0.607 1.647-0.76 2.517-0.449l0.693-2.166z"></path>
<path fill="#650e68" style="fill: var(--color1, #650e68)" d="M13.822 18.64c0 0 2.418 4.398-3.319 4.787 0 0 2.133-1.662 0.835-3.566l2.484-1.221z"></path>
<path fill="#060646" style="fill: var(--color4, #060646)" opacity="0.3" d="M10.669 23.281c0.475-0.443 1.741-1.85 0.669-3.42l1.737-0.854c0.396 0.981 1.087 3.594-2.406 4.275z"></path>
<path fill="#060646" style="fill: var(--color4, #060646)" d="M10.444 23.636c-0.066-0.019-0.121-0.066-0.147-0.131-0.036-0.090-0.009-0.191 0.067-0.25 0.005-0.004 0.511-0.404 0.855-1.016 0.442-0.786 0.42-1.546-0.065-2.258-0.036-0.052-0.047-0.117-0.031-0.177s0.057-0.111 0.114-0.139l2.484-1.221c0.108-0.053 0.24-0.011 0.297 0.094 0.043 0.077 1.032 1.911 0.208 3.395-0.56 1.008-1.806 1.584-3.705 1.713-0.027 0.002-0.053-0.001-0.078-0.008zM11.654 19.951c0.45 0.795 0.434 1.659-0.052 2.514-0.153 0.269-0.331 0.499-0.491 0.68 1.386-0.187 2.3-0.666 2.723-1.427 0.568-1.023 0.101-2.303-0.114-2.784l-2.066 1.016z"></path>
<path fill="#feb100" style="fill: var(--color6, #feb100)" d="M9.534 17.713l2.124 1.78-1.875 1.157c-0.469 0.289-1.078 0.243-1.504-0.113l-1.382-1.158c-0.426-0.357-0.569-0.941-0.352-1.442l0.865-2.004 2.124 1.78z"></path>
<path fill="#060646" style="fill: var(--color4, #060646)" opacity="0.3" d="M9.759 17.902l-1.681 1.038c-0.469 0.289-1.078 0.243-1.504-0.113l-0.081-0.068c0.067 0.236 0.204 0.453 0.404 0.621l1.382 1.158c0.426 0.357 1.035 0.403 1.504 0.113l1.875-1.157-1.898-1.591z"></path>
<path fill="#060646" style="fill: var(--color4, #060646)" d="M8.698 21.002c-0.202-0.058-0.394-0.158-0.563-0.299l-1.382-1.158c-0.503-0.422-0.67-1.103-0.414-1.695l0.865-2.004c0.028-0.064 0.084-0.11 0.153-0.126s0.141 0.002 0.196 0.048l2.124 1.78c0.001 0.001 0.001 0.001 0.002 0.002l2.122 1.778c0.054 0.045 0.083 0.113 0.079 0.182s-0.043 0.132-0.102 0.169l-1.875 1.157c-0.368 0.227-0.805 0.28-1.204 0.166zM7.497 16.292l-0.748 1.732c-0.179 0.415-0.063 0.893 0.291 1.189l1.382 1.158c0.353 0.296 0.851 0.334 1.24 0.094l1.621-1-1.893-1.586c-0.001-0.001-0.001-0.001-0.002-0.002l-1.891-1.585z"></path>
<path fill="#fff" style="fill: var(--color5, #fff)" d="M11.688 20.175c-0.415 0.215-0.925 0.159-1.287-0.144l-3.333-2.793c-0.361-0.303-0.499-0.789-0.348-1.226 0.549-1.596 2.138-5.499 5.496-8.993 0.705-0.733 1.423-1.308 2.131-1.754 2.687-1.697 5.228-1.559 6.384-1.367 0.418 0.069 0.766 0.361 0.902 0.756 0.376 1.092 0.918 3.536-0.361 6.414-0.336 0.758-0.799 1.546-1.424 2.347-2.976 3.815-6.645 5.975-8.16 6.761z"></path>
<path fill="#650e68" style="fill: var(--color1, #650e68)" d="M21.272 11.067c-2.050-5.325-6.925-5.802-6.925-5.802 2.687-1.697 5.228-1.559 6.384-1.367 0.418 0.069 0.766 0.361 0.902 0.756 0.376 1.092 0.918 3.536-0.361 6.414z"></path>
<path fill="#fff" style="fill: var(--color5, #fff)" opacity="0.6" d="M21.584 4.537c-0.083-0.035-0.171-0.062-0.262-0.077-1.156-0.192-3.696-0.331-6.384 1.367-0.708 0.447-1.425 1.021-2.13 1.754-2.8 2.913-4.37 6.11-5.133 8.017-0.152 0.381-0.272 0.71-0.364 0.976-0.113 0.328-0.063 0.683 0.12 0.968l-0.363-0.305c-0.361-0.303-0.499-0.789-0.348-1.226 0.549-1.596 2.138-5.499 5.496-8.993 0.706-0.733 1.423-1.308 2.131-1.754 2.687-1.697 5.229-1.559 6.384-1.367 0.376 0.062 0.695 0.304 0.854 0.64z"></path>
<path fill="#060646" style="fill: var(--color4, #060646)" opacity="0.3" d="M20.707 10.628c-0.336 0.758-0.799 1.546-1.424 2.347-2.977 3.815-6.645 5.976-8.159 6.762-0.341 0.177-0.745 0.17-1.079-0.005l-2.612-2.189c-0.184-0.285-0.233-0.64-0.12-0.968 0.092-0.266 0.211-0.595 0.364-0.976l1.96 1.642c0.362 0.303 0.872 0.36 1.287 0.145 0.791-0.411 2.17-1.196 3.73-2.397 1.192 0.126 2.39-0.325 3.177-1.233 0.656-0.756 0.933-1.707 0.851-2.632 0.135-0.163 0.269-0.33 0.402-0.5 0.625-0.801 1.088-1.589 1.424-2.347 0.524-1.178 0.742-2.284 0.791-3.253 0.29 1.277 0.434 3.302-0.591 5.605z"></path>
<path fill="#060646" style="fill: var(--color4, #060646)" d="M21.212 11.278c-0.066-0.019-0.122-0.067-0.149-0.135-1.031-2.678-2.804-4.074-4.109-4.772-1.421-0.76-2.615-0.887-2.627-0.888-0.123-0.012-0.213-0.119-0.202-0.239s0.119-0.208 0.241-0.196c0.052 0.005 1.281 0.133 2.779 0.93 1.38 0.734 3.252 2.2 4.335 5.015 0.044 0.113-0.014 0.239-0.129 0.28-0.046 0.017-0.095 0.017-0.139 0.005z"></path>
<path fill="#060646" style="fill: var(--color4, #060646)" d="M10.774 20.472c-0.186-0.053-0.362-0.145-0.517-0.275l-3.333-2.793c-0.434-0.364-0.597-0.938-0.416-1.464 0.532-1.547 2.139-5.529 5.545-9.072 3.466-3.605 7.247-3.429 8.712-3.186 0.501 0.083 0.915 0.429 1.078 0.903 0.476 1.384 1.253 5.027-1.818 8.963-3.018 3.868-6.762 6.058-8.231 6.821-0.321 0.167-0.685 0.198-1.020 0.103zM20.801 4.137c-0.034-0.010-0.069-0.018-0.105-0.024-1.395-0.232-4.997-0.397-8.317 3.057-3.347 3.481-4.925 7.394-5.448 8.914-0.122 0.355-0.012 0.744 0.281 0.989l3.333 2.793c0.293 0.245 0.7 0.291 1.038 0.116 1.444-0.749 5.122-2.901 8.088-6.702 2.942-3.771 2.205-7.242 1.751-8.559-0.098-0.285-0.331-0.502-0.621-0.584z"></path>
<path fill="#650e68" style="fill: var(--color1, #650e68)" d="M10.873 16.167c0 0 0.347 1.397-0.642 2.606s-3.158 1.778-3.158 1.778 0.227-2.197 1.285-3.348c1.058-1.151 2.515-1.036 2.515-1.036z"></path>
<path fill="#fff" style="fill: var(--color5, #fff)" opacity="0.6" d="M8.449 17.813c0.966-1.051 2.263-1.046 2.483-1.038 0.001-0.367-0.059-0.608-0.059-0.608s-1.457-0.115-2.515 1.036c-1.058 1.151-1.285 3.348-1.285 3.348s0.074-0.020 0.201-0.059c0.151-0.741 0.488-1.931 1.175-2.68z"></path>
<path fill="#060646" style="fill: var(--color4, #060646)" d="M7.013 20.762c-0.030-0.009-0.059-0.024-0.084-0.044-0.056-0.047-0.086-0.118-0.078-0.19 0.010-0.093 0.247-2.281 1.34-3.471 1.118-1.216 2.633-1.111 2.697-1.106 0.097 0.008 0.178 0.076 0.201 0.169 0.015 0.061 0.361 1.516-0.684 2.793-1.022 1.25-3.181 1.827-3.273 1.851-0.040 0.010-0.081 0.010-0.12-0.001zM10.684 16.385c-0.398 0.014-1.398 0.136-2.161 0.966-0.756 0.823-1.072 2.243-1.181 2.888 0.631-0.208 2.007-0.739 2.713-1.604 0.712-0.872 0.677-1.862 0.628-2.251z"></path>
<path fill="#feb100" style="fill: var(--color6, #feb100)" d="M14.192 14.266c1.622 0.462 3.303-0.449 3.755-2.035s-0.496-3.247-2.118-3.709-3.303 0.449-3.755 2.035c-0.452 1.586 0.496 3.247 2.118 3.709z"></path>
<path fill="#fff" style="fill: var(--color5, #fff)" opacity="0.6" d="M12.893 10.084c1.085-1.251 3.008-1.391 4.295-0.312 0.355 0.298 0.625 0.658 0.806 1.048-0.134-0.636-0.476-1.237-1.020-1.693-1.288-1.079-3.211-0.94-4.295 0.312-0.785 0.906-0.915 2.146-0.439 3.171-0.182-0.869 0.026-1.804 0.653-2.527z"></path>
<path fill="#060646" style="fill: var(--color4, #060646)" d="M14.13 14.477c-0.445-0.127-0.863-0.347-1.227-0.652-0.668-0.56-1.077-1.339-1.152-2.195s0.194-1.684 0.757-2.333c1.162-1.341 3.23-1.491 4.609-0.335s1.556 3.187 0.394 4.528c-0.563 0.649-1.352 1.042-2.223 1.105-0.396 0.029-0.788-0.012-1.159-0.118zM15.774 8.733c-1.034-0.295-2.189 0.002-2.924 0.85-0.486 0.561-0.719 1.277-0.654 2.015s0.418 1.412 0.995 1.896c0.577 0.484 1.309 0.72 2.061 0.666s1.434-0.394 1.92-0.954c1.004-1.158 0.851-2.913-0.341-3.911-0.319-0.267-0.68-0.454-1.057-0.561z"></path>
<path fill="#8fe3fa" style="fill: var(--color7, #8fe3fa)" d="M15.914 12.976c0.885-0.48 1.197-1.577 0.698-2.451s-1.621-1.194-2.505-0.714-1.197 1.577-0.698 2.451c0.499 0.874 1.621 1.194 2.505 0.714z"></path>
<path fill="#060646" style="fill: var(--color4, #060646)" opacity="0.3" d="M13.784 10.979c0.653-0.754 1.816-0.838 2.591-0.188 0.206 0.173 0.364 0.38 0.473 0.606-0.005-0.508-0.227-1.013-0.653-1.37-0.776-0.65-1.938-0.566-2.591 0.188-0.48 0.553-0.553 1.316-0.251 1.94-0.004-0.417 0.137-0.835 0.431-1.175z"></path>
<path fill="#060646" style="fill: var(--color4, #060646)" d="M14.454 13.336c-0.275-0.079-0.539-0.214-0.772-0.409-0.421-0.352-0.678-0.844-0.725-1.383s0.122-1.062 0.477-1.471c0.354-0.409 0.852-0.656 1.401-0.696s1.083 0.132 1.504 0.485c0.87 0.729 0.981 2.009 0.249 2.854-0.537 0.619-1.379 0.835-2.134 0.62zM15.447 9.871c-0.591-0.169-1.252 0.001-1.673 0.486-0.574 0.662-0.487 1.666 0.195 2.237s1.703 0.497 2.278-0.165c0.574-0.662 0.487-1.666-0.195-2.237-0.182-0.153-0.389-0.259-0.605-0.321z"></path>
</symbol>

<symbol id="icon-cup" viewBox="0 0 25 32">
<path fill="#feb100" style="fill: var(--color1, #feb100)" d="M14.852 15.499c-0.034-0.095-0.076-0.187-0.131-0.273-0.017-0.026-0.043-0.040-0.071-0.043-0.003-0.003-0.007-0.007-0.011-0.011-0.23-0.187-0.564-0.27-0.907-0.259-0.264 0.007-0.533 0.071-0.764 0.185-0.576 0.052-1.189 0.421-1.379 0.902-0.002 0.005-0.003 0.011-0.004 0.016l-0.001 0c-0.021 0.015-0.038 0.040-0.040 0.071-0.007 0.102 0.001 0.203 0.018 0.303-0.392-0.006-0.949-0.067-0.771-0.613 0.016-0.049 0.036-0.096 0.058-0.142 0.017-0.020 0.029-0.044 0.036-0.069 0.161-0.282 0.432-0.521 0.673-0.704 0.234-0.177 0.488-0.319 0.757-0.43 0.287-0.118 0.586-0.161 0.879-0.249 0.016-0.003 0.032-0.006 0.048-0.008 0.136-0.019 0.271-0.030 0.407-0.032 0.153-0.003 0.307 0.005 0.461 0.024 0.298 0.037 0.65 0.108 0.927 0.273 0.018 0.018 0.040 0.033 0.066 0.042 0.042 0.028 0.082 0.060 0.119 0.094 0.42 0.385-0.034 0.719-0.371 0.922z"></path>
<path fill="#feb100" style="fill: var(--color1, #feb100)" d="M15.488 18.679c-0.144-0.002-0.288 0.005-0.434 0.022-0.223 0.026-0.478 0.074-0.725 0.154-0.118 0.038-0.234 0.084-0.343 0.138l-0.002 0c-0.367 0.032-0.742 0.153-1.038 0.282-0.119 0.052-0.234 0.111-0.344 0.175 0.061-0.082 0.109-0.179 0.139-0.292 0.103-0.381-0.068-0.799-0.377-0.994-0.011-0.060-0.023-0.119-0.034-0.179-0.067-0.336-0.144-0.667-0.236-0.997-0.036-0.13-0.070-0.266-0.112-0.4s-0.090-0.266-0.156-0.385c0.013-0.006 0.026-0.012 0.038-0.021 0.311-0.245 0.525-0.518 0.903-0.684 0.059-0.022 0.118-0.044 0.178-0.065 0.158-0.047 0.32-0.073 0.482-0.101 0.027-0.004 0.055-0.009 0.082-0.014 0.346-0.008 0.636 0.1 0.98 0.149 0.015 0.002 0.030 0.002 0.044-0 0.003 0.274 0.084 0.556 0.148 0.818 0.080 0.333 0.174 0.66 0.279 0.985 0.155 0.478 0.329 0.949 0.527 1.409z"></path>
<path fill="#feb100" style="fill: var(--color1, #feb100)" d="M4.128 12.423c-0.903-0.672-1.494-1.759-1.856-2.827-0.139-0.41-0.232-0.897 0.064-1.253 0.213-0.256 0.558-0.36 0.879-0.333 0.474 0.039 0.921 0.356 1.232 0.722 0.152 0.178 0.264 0.386 0.392 0.582 0.279 0.423 0.495 0.624 0.927 0.625-0.103-0.322-0.204-0.643-0.303-0.965-0.106-0.344-0.205-0.689-0.301-1.035-1.013-0.573-2.351-1.566-3.434-0.686-0.995 0.808-0.31 2.456 0.194 3.386 0.285 0.526 0.628 1.017 0.994 1.486 0.351 0.45 0.725 0.902 1.191 1.227 0.949 0.663 2.113 0.504 3.148 0.204-0.154-0.217-0.289-0.447-0.41-0.686-0.905 0.365-1.926 0.144-2.717-0.444z"></path>
<path fill="#ffcf01" style="fill: var(--color2, #ffcf01)" d="M16.859 19.903l-0.001 0c-0.374 0.008-0.749 0.048-1.106 0.104-0.298 0.046-0.615 0.105-0.927 0.191-0.17 0.046-0.338 0.101-0.499 0.166-0.001 0-0.002 0.001-0.003 0.001-0.466 0.076-0.933 0.236-1.349 0.398-0.338 0.131-0.683 0.286-1.012 0.467l-0-0.001c-0.003-0.035-0.006-0.071-0.009-0.107 0.374-0.033 0.667-0.283 0.609-0.715-0.012-0.094-0.050-0.195-0.104-0.292 0.215-0.171 0.448-0.32 0.691-0.444 0.197-0.101 0.399-0.191 0.608-0.262 0.001-0 0.002-0 0.003-0.001 0.062-0.017 0.125-0.038 0.187-0.057 0.001-0 0.001-0 0.001-0 0.009-0.003 0.017-0.006 0.027-0.008 0.161-0.043 0.325-0.073 0.486-0.115 0.030-0.009 0.060-0.017 0.090-0.026 0.171-0.028 0.344-0.045 0.517-0.055 0.503-0.026 1.015 0.038 1.495 0.203 0.030 0.011 0.058 0.013 0.085 0.013 0.044 0.185 0.13 0.369 0.21 0.541z"></path>
<path fill="#f47c06" style="fill: var(--color3, #f47c06)" d="M18.95 2.605c-1.37-0.219-2.049 1.317-2.65 2.325 0.085 0.349 0.167 0.699 0.242 1.051 0.070 0.33 0.139 0.66 0.206 0.991 0.375-0.218 0.465-0.501 0.501-1.009 0.017-0.234 0.013-0.472 0.058-0.703 0.093-0.475 0.327-0.975 0.72-1.248 0.266-0.184 0.616-0.268 0.926-0.153 0.431 0.16 0.587 0.631 0.666 1.057 0.206 1.111 0.221 2.352-0.237 3.391-0.401 0.909-1.181 1.616-2.145 1.754 0.010 0.268 0.005 0.537-0.023 0.803 1.046-0.261 2.135-0.708 2.636-1.762 0.246-0.517 0.351-1.098 0.438-1.666 0.090-0.592 0.149-1.191 0.141-1.792-0.015-1.061-0.221-2.838-1.479-3.039z"></path>
<path fill="#350d0d" style="fill: var(--color4, #350d0d)" d="M18.159 21.978c-0.64-0.131-1.287-0.184-1.949-0.11-0.041 0.004-0.082 0.009-0.122 0.015-0.436 0.055-0.875 0.147-1.295 0.273-0.029 0.009-0.059 0.018-0.087 0.028-0.355 0.092-0.709 0.211-1.049 0.351-0.058 0.024-0.116 0.049-0.174 0.074-0.893 0.393-1.626 1.006-2.296 1.715 0.158 0.081 0.331 0.134 0.503 0.168 0.453 0.088 0.93 0.1 1.389 0.083 0.52-0.019 1.036-0.093 1.541-0.217 0.089-0.022 0.181-0.051 0.274-0.083 0.166-0.090 0.362-0.141 0.561-0.183 0.001-0 0.001-0 0.002-0 0.076-0.019 0.151-0.035 0.226-0.044 0-0 0.001-0 0.001-0 0.136-0.026 0.269-0.052 0.391-0.088 0.5-0.147 0.983-0.342 1.445-0.587 0.355-0.189 0.713-0.404 1.032-0.66 0.045-0.036 0.090-0.074 0.134-0.111s0.088-0.078 0.129-0.121c0.084-0.084 0.162-0.177 0.226-0.277-0.154-0.046-0.308-0.089-0.462-0.128-0.139-0.036-0.278-0.068-0.418-0.097z"></path>
<path fill="#ffcf01" style="fill: var(--color2, #ffcf01)" d="M15.962 2.769c0.123-0.307-0.003-0.57-0.286-0.719-0.675-0.354-1.599-0.382-2.335-0.398-0.177-0.004-0.353-0.003-0.53 0.002-0.651 0.017-1.298 0.092-1.938 0.211-1.648 0.331-3.284 0.851-4.734 1.734-0.010 0.006-0.019 0.012-0.029 0.018-0.367 0.224-0.785 0.483-1.15 0.788-0.257 0.215-0.487 0.452-0.656 0.715-0.174 0.272-0.156 0.564 0.101 0.769 0.137 0.11 0.289 0.203 0.397 0.346 0.093 0.123 0.153 0.264 0.193 0.412 0.18 0.268 0.276 0.592 0.392 0.896 0.168 0.441 0.329 0.885 0.479 1.333 0.252 0.752 0.483 1.512 0.735 2.264 0.246 0.733 0.522 1.472 0.959 2.109 0.203 0.295 0.424 0.57 0.684 0.812 0.099 0.092 0.207 0.175 0.314 0.261 0.209 0.148 0.426 0.287 0.65 0.407 0.217 0.116 0.439 0.224 0.666 0.315 0.222 0.088 0.483 0.128 0.712 0.214 0.028-0.042 0.057-0.082 0.087-0.119 0.439-0.556 1.233-1.117 2.001-1.178 0.347-0.175 0.763-0.242 1.175-0.232 0.419 0.009 0.834 0.098 1.168 0.232 0.044 0.018 0.089 0.038 0.133 0.060 0.157-0.19 0.364-0.355 0.514-0.544 0.154-0.194 0.294-0.399 0.426-0.609 0.136-0.218 0.257-0.447 0.367-0.681 0.052-0.128 0.105-0.255 0.146-0.384 0.109-0.341 0.167-0.692 0.2-1.051 0.070-0.773-0.050-1.555-0.193-2.316-0.147-0.78-0.316-1.557-0.463-2.337-0.087-0.465-0.163-0.932-0.232-1.399-0.047-0.321-0.121-0.65-0.095-0.972-0.039-0.149-0.054-0.304-0.033-0.459 0.024-0.179 0.111-0.337 0.176-0.501zM15.543 3.146c-0.24 0.073-0.502 0.049-0.751 0.048-0.369 0.001-0.732 0.020-1.1 0.050-0.313 0.025-0.624 0.050-0.935 0.082-0.201 0.021-0.401 0.044-0.601 0.073-0.123 0.017-0.246 0.037-0.368 0.058-0.636 0.114-1.249 0.269-1.853 0.451-0.526 0.133-1.047 0.287-1.569 0.477-0.112 0.041-0.222 0.083-0.332 0.128-0.415 0.166-0.819 0.356-1.223 0.548-0.068 0.032-0.136 0.065-0.204 0.097-0.304 0.145-0.6 0.295-0.892 0.46-0.030 0.016-0.058 0.033-0.088 0.050-0.217 0.125-0.432 0.278-0.676 0.336-0.020 0.005-0.034-0.022-0.023-0.039 0.152-0.234 0.403-0.396 0.631-0.551 0.019-0.013 0.037-0.025 0.056-0.037 0.271-0.185 0.544-0.375 0.824-0.547 0.064-0.039 0.128-0.077 0.193-0.114 0.454-0.261 0.934-0.483 1.414-0.687 0.685-0.338 1.447-0.584 2.215-0.761 0.448-0.113 0.899-0.198 1.345-0.245 0.046-0.007 0.092-0.013 0.138-0.019 0.362-0.047 0.729-0.089 1.096-0.113 0.281-0.018 0.561-0.027 0.839-0.019 0.327 0.008 0.656 0.036 0.982 0.061 0.291 0.022 0.616 0.028 0.882 0.165 0.018 0.009 0.019 0.039-0.002 0.046z"></path>
<path fill="#feb100" style="fill: var(--color1, #feb100)" d="M19.207 21.835c-0 0.002-0.001 0.002-0.002 0.004-0.293-0.113-0.595-0.197-0.902-0.258-0.119-0.023-0.24-0.043-0.361-0.060-0.526-0.070-1.062-0.074-1.586-0.032-0.158 0.012-0.315 0.031-0.471 0.056-0.352 0.054-0.697 0.138-1.036 0.26-0.048 0.017-0.097 0.035-0.146 0.053-0.024 0.005-0.048 0.008-0.071 0.013-0.51 0.093-0.993 0.26-1.462 0.484-0.271 0.129-0.537 0.273-0.794 0.432-0.154 0.096-0.304 0.198-0.451 0.306-0.106 0.078-0.211 0.16-0.313 0.246-0.271 0.226-0.523 0.478-0.748 0.754-0.001-0.001-0.002-0.003-0.003-0.003-0.261-0.441-0.304-1.178-0.053-1.573 0.162-0.255 0.434-0.464 0.729-0.639 0.282-0.169 0.585-0.308 0.834-0.432 0.003-0.001 0.007-0.003 0.010-0.004 0.439-0.218 0.898-0.404 1.363-0.556 0.41-0.134 0.839-0.207 1.245-0.348 0.003-0.001 0.006-0.002 0.009-0.002l0.002-0c0.047-0.012 0.094-0.023 0.142-0.033 0.045-0.009 0.089-0.019 0.134-0.027 0.439-0.087 0.886-0.148 1.332-0.176 0.159-0.010 0.338-0.025 0.523-0.036 0.027-0.001 0.055-0.002 0.083-0.003 0.087-0.005 0.176-0.007 0.265-0.007 0.062-0.001 0.125 0 0.188 0.003 0.299 0.013 0.588 0.061 0.821 0.185 0.41 0.218 0.732 0.88 0.72 1.394z"></path>
<path fill="#ffcf01" style="fill: var(--color2, #ffcf01)" d="M17.295 19.908c0.033 0.002 0.066 0.004 0.099 0.007-0.015-0.067-0.029-0.135-0.042-0.202-0.020 0.065-0.039 0.131-0.058 0.196z"></path>
<path fill="#350d0d" style="fill: var(--color4, #350d0d)" d="M14.662 2.935c-0.326-0.025-0.655-0.053-0.982-0.061-0.645-0.017-1.297 0.048-1.935 0.131-0.046 0.006-0.092 0.012-0.138 0.019-0.446 0.047-0.898 0.132-1.345 0.245-0.768 0.177-1.53 0.423-2.215 0.761-0.549 0.233-1.098 0.489-1.607 0.801-0.28 0.172-0.552 0.362-0.824 0.547-0.242 0.165-0.522 0.335-0.686 0.588-0.011 0.016 0.003 0.043 0.023 0.039 0.244-0.058 0.46-0.211 0.676-0.336 0.321-0.185 0.646-0.351 0.98-0.51 0.472-0.225 0.942-0.451 1.426-0.645 0.11-0.045 0.22-0.087 0.332-0.128 0.522-0.19 1.043-0.344 1.569-0.477 0.604-0.183 1.217-0.337 1.853-0.451 0.123-0.022 0.245-0.042 0.368-0.058 0.509-0.074 1.021-0.114 1.536-0.155 0.368-0.030 0.731-0.049 1.1-0.050 0.249 0 0.511 0.025 0.751-0.048 0.021-0.006 0.019-0.037 0.002-0.046-0.266-0.137-0.592-0.143-0.882-0.165z"></path>
<path fill="#350d0d" style="fill: var(--color4, #350d0d)" d="M17.976 2.384c-0.914 0.394-1.452 1.315-1.746 2.26-0.001-0.005-0.003-0.011-0.004-0.016-0.064-0.256-0.115-0.52-0.21-0.765 0.005-0.176 0.040-0.35 0.099-0.526 0.084-0.251 0.249-0.494 0.253-0.77 0.004-0.33-0.216-0.607-0.478-0.768-0.667-0.411-1.635-0.487-2.388-0.515-0.777-0.030-1.565 0.020-2.346 0.135-0.007 0-0.013-0-0.021 0.001-0.025 0.004-0.049 0.009-0.074 0.012-1.072 0.165-2.128 0.456-3.123 0.841-0.028 0.011-0.051 0.026-0.068 0.044-0.715 0.289-1.406 0.635-2.051 1.042-0.64 0.404-1.445 0.957-1.824 1.65-0.149 0.272-0.206 0.623-0.042 0.908 0.138 0.238 0.399 0.366 0.594 0.542 0.137 0.124 0.253 0.257 0.342 0.408 0.036 0.26 0.121 0.515 0.189 0.77 0.001 0.005 0.003 0.011 0.005 0.016-0.716-0.673-1.631-1.203-2.617-1.085-0.946 0.113-1.629 0.847-1.598 1.851 0.034 1.127 0.606 2.26 1.212 3.173 0.582 0.877 1.317 1.879 2.28 2.318 1.011 0.461 2.122 0.264 3.136-0.044 0.169 0.203 0.37 0.412 0.59 0.576-0.056 0.030-0.106 0.067-0.145 0.109-0.247 0.265-0.228 0.655-0.038 0.953 0.248 0.389 0.75 0.605 1.155 0.753 0.12 0.044 0.24 0.081 0.362 0.112-0.014 0.233 0.056 0.479 0.165 0.709v0c-0.162 0.727 0.028 1.479 0.457 2.018-0.235 0.949 0.67 1.823 1.524 1.997 0.005 0.105 0.013 0.209 0.018 0.306 0.001 0.018 0.003 0.035 0.008 0.049 0 0 0 0 0 0-0.142 0.092-0.279 0.19-0.409 0.294-0.486 0.392-0.764 0.798-0.79 1.458-0.014 0.36 0.013 1.006 0.388 1.175 0.129 0.137 0.289 0.247 0.437 0.319 0.466 0.226 1.010 0.249 1.513 0.256 0.578 0.009 1.155-0.050 1.72-0.173 0.255-0.056 0.575-0.117 0.868-0.224 0.013 0.179 0.111 0.361 0.178 0.518 0.077 0.179 0.146 0.375 0.258 0.537 0 0 0 0.001 0.001 0.001 0.11 0.308 0.238 0.612 0.348 0.913 0.178 0.487 0.355 0.974 0.523 1.464 0.153 0.446 0.303 0.893 0.448 1.342 0.008 0.025 0.017 0.051 0.025 0.076 0.028 0.087 0.055 0.175 0.080 0.265 0.117-0.018 0.234-0.036 0.351-0.055 0.635-0.098 1.271-0.198 1.906-0.3 1.004-0.161 2.025-0.291 3.035-0.461 0.154-0.025 0.309-0.052 0.462-0.081-0.088-0.127-0.182-0.251-0.274-0.375-0.1-0.131-0.2-0.262-0.293-0.394-0.274-0.388-0.545-0.779-0.811-1.173-0.58-0.859-1.141-1.731-1.682-2.616-0.291-0.475-0.589-0.95-0.878-1.431 0.072-0.076 0.138-0.158 0.198-0.245 0.092-0.135 0.177-0.309 0.222-0.49 0.001-0.001 0.001-0.001 0.001-0.001 0.249-0.335-0.044-0.915-0.233-1.221-0.344-0.561-0.783-0.774-1.396-0.869-0.083-0.013-0.168-0.023-0.252-0.032-0.046-0.12-0.091-0.243-0.133-0.365 0.015-0.045 0.029-0.089 0.044-0.133 0 0 0 0-0-0.001s0.001-0.003 0.001-0.004c0.297-0.432 0.19-1.195 0.020-1.64-0.12-0.315-0.31-0.579-0.515-0.839-0.257-0.324-0.626-0.746-0.634-1.184-0.013-0.744 0.855-1.23 0.524-2.017-0.089-0.212-0.321-0.417-0.551-0.463 0.077-0.127 0.15-0.256 0.216-0.39 0.073-0.148 0.151-0.314 0.221-0.487 0.23-0.317 0.357-0.756 0.429-1.147 1.031-0.243 2.093-0.631 2.747-1.54 0.623-0.866 0.774-2.107 0.853-3.162 0.082-1.098 0.028-2.371-0.491-3.367-0.462-0.887-1.412-1.181-2.289-0.804zM4.107 13.349c-0.466-0.326-0.839-0.778-1.191-1.227-0.366-0.469-0.709-0.96-0.994-1.486-0.504-0.929-1.189-2.578-0.194-3.386 1.084-0.88 2.421 0.113 3.434 0.686 0.096 0.346 0.195 0.692 0.301 1.035 0.099 0.322 0.201 0.644 0.303 0.965-0.432-0.001-0.647-0.201-0.927-0.625-0.129-0.195-0.241-0.403-0.392-0.582-0.312-0.366-0.758-0.683-1.232-0.722-0.321-0.026-0.666 0.077-0.879 0.333-0.297 0.356-0.203 0.843-0.065 1.253 0.362 1.069 0.952 2.155 1.856 2.827 0.791 0.588 1.812 0.81 2.717 0.444 0.122 0.239 0.257 0.469 0.41 0.686-1.036 0.3-2.199 0.459-3.148-0.204zM5.861 10.23c0.145 0.448 0.293 0.895 0.448 1.338 0.111 0.317 0.23 0.636 0.368 0.946-2.001 0.775-3.587-1.453-4.095-3.206-0.066-0.227-0.122-0.504 0.030-0.707 0.208-0.277 0.666-0.247 0.954-0.173 0.69 0.176 0.791 0.714 1.12 1.258 0.191 0.316 0.82 0.801 1.175 0.543zM8.839 15.867c-0.234-0.103-0.523-0.242-0.654-0.483-0.227-0.418 0.040-0.569 0.319-0.677 0.12 0.092 0.24 0.176 0.352 0.252 0.3 0.203 0.619 0.37 0.952 0.505 0.171 0.069 0.375 0.164 0.577 0.214-0.046 0.159-0.057 0.325-0.014 0.485-0.523 0.011-1.046-0.082-1.533-0.295zM12.458 20.114c0.215-0.171 0.448-0.32 0.691-0.444 0.197-0.101 0.399-0.191 0.608-0.262 0.001-0 0.002-0.001 0.003-0.001 0.063-0.018 0.125-0.037 0.187-0.057 0-0 0.001-0 0.001-0 0.009-0.003 0.017-0.006 0.027-0.008 0.191-0.050 0.387-0.084 0.575-0.141 0.171-0.028 0.344-0.045 0.517-0.055 0.502-0.027 1.015 0.038 1.495 0.203 0.030 0.010 0.058 0.014 0.086 0.013 0.045 0.185 0.13 0.368 0.21 0.541-0 0-0 0-0.001 0-0.374 0.008-0.749 0.048-1.106 0.104-0.46 0.072-0.969 0.173-1.426 0.356-0.001 0-0.002 0.001-0.003 0.001-0.466 0.076-0.933 0.236-1.349 0.398-0.339 0.132-0.683 0.286-1.012 0.468-0-0 0-0-0-0.001-0.003-0.035-0.006-0.071-0.009-0.107 0.374-0.033 0.667-0.283 0.609-0.715-0.012-0.095-0.050-0.195-0.104-0.292zM15.054 18.701c-0.329 0.038-0.727 0.125-1.068 0.292-0.001 0-0.001 0-0.002 0-0.367 0.032-0.742 0.153-1.038 0.282-0.119 0.052-0.234 0.111-0.344 0.175 0.061-0.082 0.109-0.179 0.139-0.292 0.103-0.381-0.068-0.799-0.377-0.994-0.011-0.060-0.023-0.119-0.034-0.179-0.067-0.336-0.144-0.667-0.236-0.997-0.072-0.26-0.137-0.546-0.268-0.785l-0-0c0.013-0.006 0.026-0.012 0.038-0.021 0.311-0.244 0.525-0.518 0.903-0.684 0.059-0.022 0.119-0.044 0.178-0.065 0.185-0.055 0.375-0.081 0.565-0.115 0.346-0.008 0.636 0.1 0.981 0.15 0.015 0.002 0.030 0.001 0.044-0 0.003 0.274 0.085 0.556 0.148 0.818 0.080 0.332 0.175 0.66 0.28 0.985 0.155 0.478 0.328 0.949 0.526 1.409-0.144-0.002-0.289 0.005-0.434 0.021zM14.72 15.227c-0.017-0.026-0.043-0.040-0.070-0.043-0.004-0.004-0.007-0.007-0.011-0.011-0.407-0.33-1.142-0.336-1.671-0.074-0.576 0.052-1.189 0.421-1.379 0.902-0.002 0.005-0.003 0.011-0.005 0.016-0 0-0 0-0.001 0-0.021 0.015-0.038 0.040-0.040 0.071-0.007 0.102 0.001 0.203 0.018 0.303-0.392-0.006-0.949-0.068-0.771-0.614 0.016-0.048 0.036-0.096 0.058-0.142 0.017-0.020 0.030-0.044 0.037-0.069 0.16-0.282 0.431-0.521 0.672-0.704 0.234-0.177 0.488-0.319 0.758-0.43 0.287-0.118 0.586-0.161 0.878-0.249 0.016-0.003 0.032-0.006 0.049-0.008 0.288-0.040 0.578-0.044 0.867-0.008 0.298 0.037 0.65 0.108 0.927 0.273 0.018 0.018 0.041 0.032 0.065 0.042 0.042 0.029 0.082 0.060 0.12 0.094 0.421 0.385-0.033 0.719-0.371 0.921-0.035-0.095-0.076-0.187-0.132-0.272zM10.973 16.762c0.128 0.213 0.443 0.351 0.604 0.527 0.119 0.13 0.282 0.352 0.273 0.544-0.014 0.307-0.341 0.299-0.56 0.237-0.441-0.125-0.842-0.383-1.138-0.749-0.23-0.285-0.345-0.597-0.505-0.902 0.296 0.056 0.596 0.075 0.899 0.064 0.118 0.137 0.266 0.225 0.427 0.279zM9.727 17.334c-0-0-0-0.001-0-0.001 0.094 0.15 0.2 0.287 0.302 0.398 0.368 0.402 0.885 0.753 1.427 0.792 0.213 0.015 0.381-0.042 0.498-0.146 0 0 0.001 0 0.001 0 0.019 0.006 0.038 0.013 0.056 0.020 0.208 0.081 0.393 0.208 0.417 0.471 0.020 0.22-0.099 0.391-0.264 0.493-0.053 0.033-0.11 0.059-0.17 0.078-0.354 0.111-0.762 0.041-1.096-0.116-0.337-0.157-0.61-0.41-0.808-0.73-0.244-0.394-0.275-0.827-0.364-1.259zM10.72 20.296c-0.274-0.28-0.387-0.641-0.501-1.004 0.333 0.329 0.772 0.544 1.282 0.569 0.072 0.003 0.145 0.003 0.219-0.003l0 0.001c0.051 0.050 0.109 0.088 0.169 0.127 0.104 0.067 0.211 0.132 0.285 0.248 0.019 0.029 0.034 0.057 0.046 0.084 0.131 0.279-0.067 0.412-0.312 0.448-0.113 0.017-0.236 0.013-0.342-0.006-0.017-0.003-0.033-0.006-0.049-0.010-0.299-0.072-0.577-0.23-0.797-0.454zM19.586 24.449c0.49 0.808 0.997 1.605 1.518 2.391 0.278 0.419 0.561 0.835 0.847 1.248 0.086 0.124 0.171 0.252 0.257 0.381-0.96 0.151-1.917 0.336-2.869 0.489-0.642 0.103-1.284 0.209-1.927 0.316-0.009-0.028-0.019-0.056-0.028-0.085-0.163-0.497-0.333-0.992-0.51-1.484-0.171-0.473-0.345-0.945-0.532-1.412-0.111-0.279-0.217-0.574-0.344-0.856-0.036-0.164-0.11-0.323-0.179-0.475-0.069-0.153-0.152-0.348-0.278-0.476h0c0.312-0.054 0.628-0.165 0.882-0.246 0.55-0.177 1.080-0.417 1.578-0.715 0.246-0.147 0.5-0.305 0.728-0.493 0.283 0.487 0.578 0.96 0.855 1.417zM18.812 22.481c-0.041 0.042-0.085 0.082-0.129 0.121s-0.089 0.076-0.134 0.111c-0.319 0.256-0.677 0.471-1.032 0.66-0.461 0.245-0.945 0.44-1.445 0.587-0.122 0.036-0.255 0.062-0.391 0.088-0 0-0.001 0-0.001 0-0.075 0.009-0.15 0.025-0.226 0.044-0.001 0-0.001 0-0.002 0-0.199 0.041-0.395 0.093-0.561 0.183-0.093 0.032-0.185 0.061-0.274 0.083-0.505 0.124-1.021 0.198-1.541 0.217-0.458 0.017-0.935 0.005-1.389-0.083-0.171-0.033-0.345-0.086-0.503-0.168 0.67-0.709 1.403-1.322 2.296-1.715 0.058-0.025 0.115-0.050 0.174-0.074 0.34-0.14 0.694-0.259 1.049-0.351 0.029-0.010 0.058-0.019 0.087-0.028 0.42-0.126 0.859-0.218 1.295-0.273 0.040-0.006 0.082-0.011 0.122-0.015 0.662-0.074 1.309-0.021 1.949 0.11 0.14 0.029 0.279 0.061 0.418 0.097 0.154 0.039 0.308 0.082 0.462 0.128-0.064 0.101-0.142 0.193-0.227 0.277zM17.666 20.256c0.299 0.013 0.588 0.061 0.821 0.185 0.41 0.218 0.732 0.88 0.72 1.394-0 0.002-0.001 0.002-0.002 0.004-0.293-0.113-0.595-0.197-0.902-0.258-0.119-0.023-0.24-0.043-0.361-0.060-0.526-0.070-1.062-0.074-1.586-0.032-0.516 0.042-1.018 0.14-1.507 0.316-0.048 0.017-0.097 0.035-0.146 0.053-0.024 0.005-0.048 0.008-0.071 0.013-0.51 0.093-0.993 0.26-1.462 0.484-0.865 0.412-1.687 0.977-2.305 1.738h-0c-0.001-0.001-0.002-0.002-0.003-0.003-0.26-0.441-0.304-1.177-0.053-1.573 0.317-0.501 1.054-0.817 1.563-1.071 0.442-0.221 0.904-0.407 1.373-0.56 0.41-0.134 0.839-0.207 1.245-0.348 0.003-0.001 0.006-0.002 0.009-0.002l0.002-0c0.047-0.012 0.094-0.023 0.142-0.033 0.481-0.102 0.974-0.172 1.465-0.203 0.159-0.010 0.338-0.025 0.523-0.036 0.027-0.001 0.055-0.002 0.083-0.003 0.087-0.005 0.176-0.007 0.265-0.007 0.062-0 0.125 0 0.188 0.004zM17.295 19.908c0.018-0.065 0.037-0.13 0.058-0.196 0.013 0.067 0.027 0.135 0.042 0.202-0.033-0.003-0.066-0.005-0.099-0.007zM16.479 14.253c-0.006 0.222-0.057 0.442-0.125 0.65-0.146 0.449-0.34 0.874-0.208 1.361 0.148 0.547 0.557 0.943 0.822 1.425 0.191 0.347 0.279 0.76 0.284 1.154 0.001 0.094-0.009 0.188-0.018 0.282-0.026 0.172-0.049 0.345-0.067 0.519 0 0.001 0 0.001 0 0.001-0.082-0.17-0.174-0.343-0.292-0.481 0.024-0.1-0.010-0.21-0.134-0.253-0.276-0.096-0.555-0.166-0.837-0.202-0.218-0.548-0.428-1.099-0.604-1.664-0.105-0.337-0.203-0.677-0.298-1.018-0.009-0.031-0.017-0.063-0.025-0.095 0.387-0.195 0.777-0.487 0.819-0.97 0.024-0.278-0.091-0.503-0.268-0.677 0.151-0.144 0.282-0.329 0.397-0.476 0.055-0.070 0.109-0.142 0.161-0.215 0.311 0.075 0.405 0.287 0.394 0.658zM15.818 3.728c-0.026 0.323 0.048 0.651 0.095 0.972 0.069 0.468 0.145 0.934 0.233 1.399 0.147 0.781 0.316 1.557 0.463 2.338 0.143 0.76 0.263 1.542 0.192 2.316-0.033 0.358-0.091 0.709-0.199 1.050-0.041 0.129-0.095 0.257-0.146 0.385-0.11 0.234-0.231 0.464-0.367 0.681-0.132 0.21-0.272 0.416-0.426 0.609-0.15 0.189-0.357 0.355-0.514 0.544-0.044-0.022-0.088-0.042-0.133-0.060-0.662-0.266-1.643-0.352-2.343-0.001-0.768 0.061-1.562 0.622-2.001 1.178-0.030 0.038-0.059 0.078-0.086 0.119-0.229-0.086-0.49-0.125-0.712-0.214-0.228-0.091-0.45-0.199-0.667-0.315-0.224-0.12-0.441-0.259-0.65-0.407-0.107-0.086-0.216-0.169-0.314-0.261-0.26-0.242-0.481-0.518-0.684-0.812-0.438-0.637-0.714-1.376-0.96-2.109-0.252-0.752-0.483-1.512-0.735-2.264-0.15-0.448-0.311-0.892-0.479-1.333-0.115-0.304-0.211-0.628-0.392-0.896-0.039-0.148-0.1-0.289-0.192-0.412-0.108-0.144-0.26-0.237-0.397-0.346-0.256-0.205-0.275-0.497-0.101-0.769 0.414-0.648 1.204-1.137 1.835-1.521 1.45-0.884 3.085-1.403 4.734-1.734 0.814-0.15 1.639-0.231 2.468-0.213 0.736 0.016 1.659 0.044 2.335 0.398 0.284 0.149 0.41 0.411 0.287 0.719-0.066 0.164-0.153 0.322-0.177 0.501-0.020 0.155-0.006 0.309 0.033 0.459zM20.429 5.644c0.008 0.601-0.051 1.2-0.141 1.792-0.087 0.568-0.191 1.148-0.438 1.666-0.502 1.054-1.59 1.501-2.636 1.762 0.028-0.266 0.033-0.534 0.023-0.803 0.964-0.138 1.744-0.844 2.145-1.754 0.458-1.039 0.443-2.28 0.237-3.391-0.079-0.426-0.235-0.897-0.666-1.057-0.31-0.115-0.66-0.031-0.926 0.153-0.393 0.272-0.627 0.773-0.72 1.248-0.045 0.231-0.041 0.468-0.058 0.703-0.037 0.508-0.127 0.791-0.501 1.009-0.067-0.331-0.136-0.662-0.206-0.991-0.075-0.352-0.157-0.702-0.242-1.051 0.602-1.008 1.281-2.544 2.65-2.325 1.258 0.201 1.465 1.978 1.479 3.039zM17.071 8.663c-0.081-0.463-0.17-0.926-0.262-1.388 0.434 0.045 0.744-0.694 0.757-1.064 0.021-0.638-0.153-1.156 0.361-1.657 0.214-0.209 0.597-0.465 0.913-0.33 0.232 0.1 0.317 0.368 0.37 0.599 0.411 1.779 0.116 4.511-1.999 4.846-0.031-0.338-0.082-0.675-0.14-1.006z"></path>
<path fill="#f47c06" style="fill: var(--color3, #f47c06)" d="M14.329 18.855c-0.437-1.236-0.97-2.901-0.902-3.523 0.027-0.004 0.055-0.009 0.082-0.014 0.346-0.008 0.636 0.1 0.98 0.149 0.015 0.002 0.030 0.002 0.044-0.001 0.003 0.274 0.084 0.556 0.148 0.818 0.080 0.333 0.174 0.66 0.279 0.985 0.155 0.478 0.329 0.949 0.527 1.409-0.144-0.002-0.288 0.005-0.434 0.022-0.223 0.026-0.478 0.074-0.725 0.154z"></path>
<path fill="#f47c06" style="fill: var(--color3, #f47c06)" d="M13.732 14.914c0.143-0.245 0.022-0.571-0.082-0.769 0.153-0.004 0.307 0.005 0.461 0.024 0.298 0.037 0.65 0.108 0.927 0.273 0.018 0.018 0.040 0.033 0.066 0.042 0.042 0.028 0.082 0.060 0.119 0.094 0.42 0.385-0.034 0.719-0.371 0.922-0.034-0.095-0.076-0.187-0.131-0.273-0.017-0.026-0.043-0.040-0.071-0.043-0.003-0.003-0.007-0.007-0.011-0.011-0.23-0.187-0.564-0.27-0.907-0.259z"></path>
<path fill="#feb100" style="fill: var(--color1, #feb100)" d="M15.752 20.007c-0.298 0.046-0.615 0.105-0.927 0.191-0.068-0.176-0.203-0.528-0.363-0.97 0.030-0.008 0.060-0.017 0.090-0.026 0.171-0.028 0.344-0.045 0.517-0.055 0.503-0.026 1.015 0.038 1.495 0.203 0.030 0.011 0.058 0.013 0.085 0.013 0.044 0.185 0.13 0.369 0.21 0.541l-0.001 0c-0.374 0.008-0.749 0.048-1.106 0.104z"></path>
<path fill="#feb100" style="fill: var(--color1, #feb100)" d="M15.785 3.27c-0.021 0.155-0.006 0.309 0.033 0.459-0.026 0.323 0.048 0.651 0.095 0.972 0.069 0.467 0.145 0.934 0.233 1.399 0.147 0.781 0.316 1.557 0.463 2.337 0.143 0.761 0.263 1.542 0.193 2.316-0.033 0.358-0.091 0.709-0.2 1.051-0.041 0.129-0.095 0.256-0.146 0.384-0.109 0.235-0.231 0.464-0.367 0.681-0.131 0.21-0.272 0.416-0.426 0.609-0.15 0.189-0.357 0.355-0.514 0.544-0.044-0.022-0.089-0.042-0.133-0.060-0.334-0.134-0.749-0.223-1.168-0.232 1.775-1.833-0.641-9.107-1.091-10.404 0.311-0.032 0.622-0.057 0.935-0.082 0.368-0.030 0.731-0.049 1.1-0.050 0.249 0 0.511 0.025 0.751-0.048 0.021-0.006 0.019-0.037 0.002-0.046-0.266-0.137-0.592-0.143-0.882-0.165-0.326-0.025-0.655-0.053-0.982-0.061-0.279-0.008-0.559 0.001-0.839 0.019 0.211-0.425 0.114-0.889-0.030-1.239 0.176-0.005 0.353-0.006 0.53-0.002 0.736 0.016 1.66 0.044 2.335 0.398 0.283 0.149 0.409 0.412 0.286 0.719-0.065 0.164-0.153 0.322-0.176 0.501z"></path>
<path fill="#f47c06" style="fill: var(--color3, #f47c06)" d="M19.207 21.835c-0 0.002-0.001 0.002-0.001 0.004-0.293-0.113-0.595-0.197-0.902-0.258-0.119-0.023-0.24-0.043-0.361-0.060-0.526-0.070-1.062-0.074-1.586-0.032-0.158 0.012-0.315 0.031-0.471 0.056-0.189-0.607-0.417-0.916-0.61-1.071 0.439-0.087 0.886-0.148 1.332-0.176 0.159-0.010 0.338-0.025 0.523-0.036 0.027-0.001 0.055-0.002 0.083-0.003 0.087-0.005 0.176-0.007 0.265-0.007 0.062-0 0.125 0 0.188 0.003 0.299 0.013 0.588 0.061 0.821 0.185 0.41 0.218 0.732 0.88 0.72 1.394z"></path>
<path fill="#fff069" style="fill: var(--color5, #fff069)" d="M6.632 4.717c-0.065 0.038-0.129 0.076-0.193 0.114-0.28 0.172-0.552 0.362-0.824 0.547-0.018 0.012-0.037 0.025-0.056 0.037-0.366-0.321-0.528-0.72-0.6-1.012 0.365-0.304 0.783-0.563 1.15-0.788 0.075 0.583 0.522 1.1 0.522 1.1z"></path>
<path fill="#fff069" style="fill: var(--color5, #fff069)" d="M10.835 14.716c-1.764-0.615-3.345-3.027-3.519-4.455-0.154-1.268-1.338-4.037-1.601-4.642 0.293-0.165 0.589-0.315 0.892-0.46 0.068-0.032 0.136-0.065 0.204-0.097 0.227 0.491 0.68 1.624 1.427 4.097 1.153 3.816 2.596 5.557 2.596 5.557z"></path>
<path fill="#fff069" style="fill: var(--color5, #fff069)" d="M12.377 22.787c-0.154 0.096-0.304 0.198-0.451 0.305-0.106 0.078-0.211 0.16-0.313 0.246-0.071-0.322-0.185-0.977-0.075-1.461 0.282-0.169 0.585-0.308 0.834-0.432 0.003-0.001 0.007-0.003 0.010-0.005-0.057 0.398-0.095 0.911-0.005 1.346z"></path>
</symbol>

<symbol id="icon-ice" viewBox="0 0 42 32">
<path fill="#90d7f7" style="fill: var(--color6, #90d7f7)" d="M39.527 24.989c-1.565 0.14-3.19-0.328-4.684 0.158-2.14 0.691-3.293 3.065-5.253 4.173-1.515 0.855-3.476 0.843-4.979-0.033-0.932-0.542-1.666-1.37-2.562-1.963-0.899-0.596-2.102-0.932-3.030-0.387-1.111 0.652-1.294 2.198-2.108 3.205-1.103 1.37-3.095 1.483-4.843 1.486-0.66 0-1.362-0.009-1.922-0.363-1.212-0.769-1.15-2.699-2.258-3.616-0.993-0.822-2.453-0.497-3.703-0.194s-2.798 0.444-3.599-0.572c-2.458-3.128 3.366-5.335 7.399-6.457 1.498-0.42 2.75-0.688 3.237-0.798 5.987-1.352 12.178-1.778 18.295-1.263 1.984 0.167 3.962 0.435 5.923 0.804 1.439 0.268 2.871 0.593 4.286 0.971 1.103 0.292 2.361 0.777 2.68 1.883 0.436 1.525-1.316 2.826-2.878 2.966z"></path>
<path fill="#b6eeff" style="fill: var(--color7, #b6eeff)" d="M10.099 20.29c-2.78 0.738-5.462 1.857-7.948 3.316-0.552 0.324-1.162 0.781-1.153 1.426 0.006 0.439 0.316 0.821 0.677 1.065 2.021 1.365 5.062-0.728 7.084 0.635 0.842 0.567 1.257 1.6 2.017 2.275 0.82 0.728 1.995 0.97 3.072 0.785s2.059-0.76 2.879-1.488c0.87-0.771 1.631-1.75 2.727-2.123 1.394-0.474 2.922 0.179 4.125 1.035 0.639 0.454 1.244 0.974 1.96 1.291 1.212 0.535 2.691 0.404 3.792-0.337 0.863-0.58 1.468-1.476 2.263-2.149 2.131-1.804 5.22-1.746 7.793-2.81 0.33-0.137 0.704-0.372 0.692-0.732-0.007-0.206-0.146-0.382-0.29-0.528-0.75-0.76-1.785-1.151-2.803-1.459-5.959-1.801-12.316-1.468-18.527-1.118-2.34 0.132-4.681 0.264-7.022 0.395z"></path>
<path fill="#d4f7ff" style="fill: var(--color8, #d4f7ff)" d="M12.767 27.891c-1.694-0.693-2.407-2.483-4.293-2.971-2.043-0.528-3.931 0.573-5.951 0.317-0.062-0.008-0.084 0.090-0.031 0.117 1.845 0.932 3.816-0.259 5.776 0.319 1.862 0.549 2.388 2.841 4.225 3.22 0.662 0.137 0.88-0.755 0.274-1.003z"></path>
<path fill="#d4f7ff" style="fill: var(--color8, #d4f7ff)" d="M36.365 22.4c-0.849 0.598-1.74 0.4-2.658 0.728-0.644 0.23-1.251 0.679-1.826 1.036-0.782 0.485-1.601 0.963-2.339 1.514-0.893 0.667-1.479 2.059-2.773 1.929-0.159-0.016-0.192 0.246-0.038 0.281 0.608 0.138 1.059 0.017 1.574-0.33 0.447-0.301 0.745-0.775 1.151-1.122 0.589-0.504 1.253-0.81 1.933-1.152 1.194-0.6 2.163-1.261 3.506-1.435 0.805-0.104 1.355-0.23 1.997-0.757 0.38-0.313-0.122-0.977-0.528-0.691z"></path>
<path fill="#d4f7ff" style="fill: var(--color8, #d4f7ff)" d="M37.978 22.161c-0.174 0.18-0.174 0.412 0 0.592 0.253 0.262 0.708 0.064 0.708-0.296s-0.455-0.557-0.708-0.296z"></path>
<path fill="#51c4f1" style="fill: var(--color9, #51c4f1)" opacity="0.5" d="M35.303 20.277c-0.28 0.67-0.955 1.060-1.589 1.406-1.745 0.953-3.493 1.903-5.238 2.857-1.044 0.569-2.217 1.156-3.366 0.858-0.761-0.197-1.394-0.763-2.164-0.929-1.094-0.235-2.17 0.378-3.157 0.905-0.943 0.503-1.919 0.947-2.915 1.331-0.413 0.158-0.846 0.31-1.288 0.286-0.427-0.021-0.828-0.199-1.218-0.381-2.137-0.998-4.233-2.091-6.276-3.279-0.212-0.125-0.427-0.253-0.575-0.453-0.304-0.411-0.212-0.998-0.009-1.471 0.145-0.334 0.339-0.646 0.478-0.98 1.498-0.42 2.75-0.688 3.237-0.798 5.987-1.352 12.178-1.778 18.295-1.263 1.984 0.167 3.962 0.435 5.922 0.804 0.026 0.381 0.008 0.763-0.136 1.108z"></path>
<path fill="#d0fcff" style="fill: var(--color10, #d0fcff)" d="M20.301 12.422c0.566-0.634 1.524-0.814 2.237-1.251 0.876-0.537 1.759-1.063 2.648-1.577 0.171-0.099 0.35-0.199 0.552-0.215 0.18-0.014 0.357 0.040 0.528 0.094 1.921 0.602 3.843 1.204 5.765 1.806 0.256 0.080 0.534 0.176 0.673 0.386 0.093 0.141 0.107 0.311 0.119 0.475 0.109 1.555 0.177 3.112 0.201 4.67 0.018 1.121 0.245 2.437 0.072 3.545-0.172 1.099-1.42 1.552-2.376 2.072-1.488 0.81-3.175 2.234-4.95 1.871-0.919-0.188-1.745-0.679-2.551-1.163-0.651-0.39-1.302-0.78-1.953-1.171-0.4-0.24-0.821-0.501-1.030-0.921-0.137-0.274-0.168-0.588-0.196-0.893-0.129-1.372-0.259-2.744-0.388-4.115-0.119-1.256-0.187-2.676 0.649-3.613z"></path>
<path fill="#50bfec" style="fill: var(--color11, #50bfec)" opacity="0.5" d="M24.161 11.137c0.517-0.328 1.065-0.666 1.675-0.694 0.39-0.017 0.774 0.095 1.149 0.206 0.964 0.286 1.928 0.572 2.892 0.859 0.536 0.159 1.98 0.33 1.733 0.991-0.103 0.277-1.411 0.919-1.696 1.107-0.649 0.426-1.32 0.818-2.009 1.174-0.347 0.179-0.708 0.352-1.096 0.385-0.38 0.032-0.757-0.072-1.124-0.176-0.754-0.214-1.507-0.433-2.258-0.658-0.901-0.269-1.902-0.206-2.74-0.645-0.039-0.020-0.080-0.045-0.094-0.086-0.023-0.067 0.035-0.132 0.088-0.178 1.085-0.951 2.273-1.519 3.481-2.285z"></path>
<path fill="#3fafd1" style="fill: var(--color12, #3fafd1)" opacity="0.5" d="M25.49 15.899c0.148 0.027 0.307 0.057 0.413 0.165 0.125 0.127 0.141 0.324 0.149 0.503 0.1 2.217 0.065 4.441-0.103 6.654-1.72-0.401-3.048-1.893-4.778-2.246-0.103-0.021-0.217-0.043-0.283-0.126-0.072-0.091-0.061-0.221-0.050-0.337 0.157-1.671-0.981-3.84-0.445-5.422 0.31-0.915 1.282-0.151 2.095 0.092 0.987 0.295 1.99 0.534 3.003 0.717z"></path>
<path fill="#72d8f7" style="fill: var(--color13, #72d8f7)" opacity="0.5" d="M31.968 13.785c0.132 0.044 0.25 0.142 0.347 0.318 0.53 0.962 0.24 2.979 0.237 4.050-0.003 0.785-0.025 1.634-0.501 2.256-0.31 0.406-0.774 0.657-1.223 0.896-1.216 0.648-2.433 1.297-3.693 1.852-0.067-1.262-0.084-2.526-0.053-3.788 0.020-0.82-0.128-1.981 0.136-2.774 0.366-1.098 2.509-2.002 3.45-2.43 0.477-0.218 0.944-0.496 1.301-0.379z"></path>
<path fill="#d0fcff" style="fill: var(--color10, #d0fcff)" d="M22.011 21.616c-0.171 1.099-1.418 1.552-2.376 2.073-1.486 0.81-3.175 2.234-4.95 1.871-0.92-0.188-1.745-0.679-2.55-1.162-0.652-0.39-1.303-0.78-1.955-1.171-0.401-0.241-0.819-0.503-1.029-0.923-0.139-0.274-0.168-0.587-0.197-0.894-0.13-1.37-0.259-2.743-0.386-4.113-0.121-1.257-0.189-2.678 0.648-3.616 0.566-0.634 1.524-0.813 2.237-1.251 0.401-0.244 0.802-0.486 1.203-0.727 0.481-0.286 0.961-0.569 1.445-0.849 0.171-0.098 0.351-0.2 0.551-0.215 0.18-0.015 0.357 0.039 0.531 0.092 1.919 0.602 3.841 1.206 5.763 1.808 0.256 0.080 0.533 0.176 0.672 0.384 0.095 0.143 0.109 0.313 0.121 0.476 0.021 0.277 0.038 0.554 0.053 0.831 0.080 1.278 0.127 2.558 0.147 3.839 0.018 1.12 0.245 2.437 0.071 3.545z"></path>
<path fill="#50bfec" style="fill: var(--color11, #50bfec)" opacity="0.5" d="M13.077 12.397c0.517-0.328 1.065-0.666 1.675-0.693 0.39-0.017 0.774 0.095 1.149 0.206 0.964 0.286 1.928 0.572 2.892 0.858 0.536 0.159 1.98 0.33 1.734 0.991-0.103 0.277-1.411 0.919-1.696 1.107-0.649 0.426-1.32 0.818-2.009 1.174-0.347 0.179-0.708 0.352-1.096 0.385-0.38 0.032-0.757-0.072-1.124-0.176-0.754-0.214-1.507-0.433-2.258-0.658-0.901-0.269-1.902-0.206-2.74-0.645-0.039-0.020-0.080-0.045-0.094-0.086-0.023-0.067 0.035-0.132 0.088-0.178 1.085-0.951 2.273-1.519 3.481-2.285z"></path>
<path fill="#bdefff" style="fill: var(--color14, #bdefff)" d="M14.406 17.159c0.148 0.027 0.307 0.057 0.413 0.165 0.125 0.127 0.141 0.324 0.149 0.503 0.1 2.217 0.065 4.441-0.103 6.654-1.72-0.401-3.048-1.893-4.778-2.246-0.103-0.021-0.217-0.043-0.283-0.126-0.072-0.091-0.061-0.221-0.050-0.337 0.157-1.671-0.981-3.84-0.445-5.422 0.31-0.915 1.282-0.151 2.095 0.092 0.987 0.295 1.99 0.535 3.003 0.717z"></path>
<path fill="#72d8f7" style="fill: var(--color13, #72d8f7)" opacity="0.5" d="M20.884 15.045c0.132 0.044 0.25 0.142 0.347 0.318 0.53 0.962 0.241 2.979 0.237 4.050-0.003 0.785-0.025 1.634-0.501 2.256-0.31 0.406-0.773 0.657-1.223 0.896-1.216 0.648-2.433 1.297-3.693 1.852-0.067-1.262-0.084-2.526-0.053-3.788 0.020-0.82-0.128-1.981 0.136-2.774 0.366-1.098 2.509-2.002 3.45-2.43 0.478-0.218 0.944-0.496 1.301-0.379z"></path>
<path fill="#e9feff" style="fill: var(--color15, #e9feff)" d="M9.85 18.344c0.037 0.323 0.089 0.647 0.060 0.97-0.015 0.169-0.052 0.336-0.043 0.505s0.076 0.347 0.22 0.434c0.24-0.678 0.088-1.433 0.226-2.138 0.053-0.27 0.16-0.548 0.383-0.706 0.237-0.167 0.551-0.164 0.836-0.12s0.573 0.122 0.859 0.081c-0.143-0.292-0.533-0.317-0.845-0.401-0.451-0.123-1.097-0.593-1.562-0.243-0.408 0.307-0.186 1.185-0.136 1.619z"></path>
<path fill="#d0fcff" style="fill: var(--color10, #d0fcff)" d="M16.989 17.314c-0.133 0.103-0.265 0.217-0.334 0.371-0.062 0.139-0.066 0.296-0.069 0.448-0.011 0.547-0.022 1.095-0.033 1.642-0.006 0.3-0.011 0.605 0.077 0.892 0.294-0.264 0.352-0.697 0.405-1.090 0.067-0.491 0.155-0.979 0.264-1.463 0.015-0.065 0.030-0.131 0.064-0.187 0.049-0.082 0.131-0.137 0.21-0.189 0.276-0.182 0.552-0.364 0.828-0.546 0.271-0.178 0.568-0.397 0.608-0.722 0.006-0.047-0.834 0.149-0.933 0.187-0.39 0.15-0.758 0.4-1.088 0.657z"></path>
<path fill="#72d8f7" style="fill: var(--color13, #72d8f7)" opacity="0.5" d="M19.907 19.801c-0.055 0.414-0.168 0.821-0.336 1.203-0.050 0.114-0.107 0.229-0.202 0.308-0.089 0.074-0.202 0.109-0.309 0.152-0.311 0.126-0.599 0.341-0.751 0.643-0.046 0.090-0.079 0.199-0.039 0.292 0.043 0.102 0.162 0.153 0.272 0.149s0.212-0.052 0.312-0.099c0.298-0.141 0.597-0.282 0.895-0.423 0.176-0.083 0.356-0.169 0.499-0.303 0.161-0.151 0.265-0.355 0.336-0.565 0.136-0.402 0.161-0.832 0.185-1.257 0.020-0.35 0.039-0.7 0.059-1.050 0.014-0.243 0.014-0.52-0.163-0.685-0.209-0.195-0.745 1.535-0.758 1.633z"></path>
<path fill="#72d8f7" style="fill: var(--color13, #72d8f7)" opacity="0.5" d="M12.293 21.937c0.157 0.009 0.315 0.018 0.472 0.027 0.085 0.005 0.171 0.010 0.254-0.006 0.324-0.061 0.512-0.397 0.656-0.697 0.136-0.285 0.273-0.57 0.409-0.855 0.028-0.058 0.064-0.123 0.126-0.137 0.13-0.029 0.18 0.165 0.169 0.299-0.056 0.663-0.112 1.327-0.168 1.99-0.013 0.158-0.027 0.318-0.084 0.466-0.034 0.088-0.086 0.174-0.168 0.22-0.117 0.066-0.267 0.034-0.383-0.035s-0.208-0.171-0.314-0.254c-0.237-0.187-0.532-0.28-0.819-0.368-0.269-0.083-2.028-0.437-1.695-0.885 0.143-0.193 0.371-0.005 0.542 0.055 0.335 0.117 0.646 0.16 1.001 0.18z"></path>
<path fill="#d0fcff" style="fill: var(--color10, #d0fcff)" d="M27.72 16.791c-0.162 0.493-0.11 1.028-0.081 1.547 0.057 1.027 0.015 2.060-0.126 3.078-0.036 0.258-0.040 0.59 0.195 0.697 0.149 0.067 0.321 0.001 0.47-0.064 0.553-0.243 1.107-0.487 1.66-0.73 0.623-0.274 1.261-0.558 1.746-1.038-0.635 0.175-1.27 0.351-1.906 0.526-0.449 0.124-0.919 0.259-1.252 0.588-0.18-0.036-0.231-0.268-0.244-0.453-0.044-0.64-0.088-1.279-0.132-1.919-0.025-0.368-0.050-0.745 0.046-1.101 0.068-0.252 0.193-0.484 0.318-0.713 0.152-0.279 0.803-1.081 0.306-1.285-0.422-0.173-0.899 0.557-1.001 0.868z"></path>
<path fill="#3fafd1" style="fill: var(--color12, #3fafd1)" opacity="0.5" d="M24.116 20.874c-0.309-0.014-0.618-0.027-0.926-0.041-0.108-0.005-0.24 0.004-0.288 0.101-0.077 0.154 0.139 0.283 0.306 0.321 0.356 0.081 0.718 0.172 1.028 0.366 0.24 0.15 0.53 0.365 0.768 0.213 0.155-0.099 0.192-0.308 0.214-0.492 0.071-0.586 0.141-1.171 0.212-1.757 0.072-0.6 0.652-3.298-0.698-2.542-0.539 0.301-0.507 0.801-0.493 1.353 0.022 0.832-0 1.653-0.123 2.478z"></path>
<path fill="#50bfec" style="fill: var(--color11, #50bfec)" opacity="0.5" d="M21.793 14.232c-0.109 0.048-0.221 0.095-0.333 0.143-0.772 0.325-1.548 0.646-2.326 0.962-0.525 0.214-1.067 0.429-1.63 0.447-1.167 0.033-2.19-0.765-2.989-1.623-0.705-0.759-1.262-1.611-1.857-2.457 0.481-0.286 0.961-0.569 1.444-0.849 0.171-0.098 0.351-0.199 0.551-0.214 0.18-0.015 0.357 0.039 0.531 0.092 1.919 0.602 3.841 1.206 5.763 1.808 0.256 0.080 0.533 0.176 0.672 0.384 0.094 0.143 0.109 0.313 0.121 0.476 0.021 0.277 0.039 0.554 0.053 0.831z"></path>
<path fill="#d0fcff" style="fill: var(--color10, #d0fcff)" d="M13.572 2.666c0.566-0.556 1.525-0.712 2.237-1.095 0.876-0.471 1.759-0.931 2.648-1.381 0.171-0.086 0.35-0.174 0.552-0.188 0.18-0.013 0.357 0.035 0.528 0.082 1.922 0.527 3.843 1.055 5.765 1.582 0.256 0.070 0.534 0.154 0.673 0.338 0.093 0.123 0.107 0.273 0.119 0.416 0.109 1.362 0.177 2.725 0.201 4.089 0.018 0.981 0.048 3.669-0.125 4.64-0.172 0.962-1.42 1.359-2.376 1.815-1.488 0.709-3.175 1.956-4.95 1.638-0.919-0.165-1.745-0.595-2.551-1.018-0.651-0.342-1.302-0.683-1.953-1.025-0.4-0.21-0.821-0.439-1.030-0.807-0.137-0.24-0.168-0.515-0.196-0.782-0.129-1.201-0.062-3.938-0.191-5.139-0.119-1.1-0.187-2.343 0.649-3.164z"></path>
<path fill="#50bfec" style="fill: var(--color11, #50bfec)" opacity="0.5" d="M17.432 1.541c0.517-0.287 1.065-0.583 1.675-0.607 0.391-0.015 0.774 0.083 1.149 0.18 0.964 0.25 1.928 0.501 2.892 0.752 0.536 0.139 1.98 0.289 1.734 0.868-0.103 0.242-1.411 0.805-1.696 0.969-0.649 0.373-1.32 0.716-2.009 1.028-0.347 0.157-0.708 0.308-1.096 0.337-0.38 0.028-0.757-0.063-1.124-0.154-0.754-0.188-1.507-0.38-2.258-0.576-0.901-0.236-1.903-0.18-2.74-0.565-0.039-0.018-0.080-0.039-0.094-0.076-0.023-0.059 0.035-0.115 0.088-0.156 1.085-0.833 2.273-1.33 3.481-2z"></path>
<path fill="#bdefff" style="fill: var(--color14, #bdefff)" d="M18.761 5.711c0.148 0.023 0.307 0.050 0.413 0.145 0.125 0.111 0.141 0.283 0.149 0.44 0.1 1.942-0.131 5.424-0.3 7.362-1.72-0.351-3.048-1.658-4.778-1.966-0.103-0.018-0.217-0.038-0.283-0.111-0.072-0.080-0.061-0.193-0.050-0.295 0.157-1.463-0.784-4.898-0.249-6.283 0.31-0.801 1.282-0.132 2.095 0.080 0.987 0.258 1.99 0.468 3.003 0.628z"></path>
<path fill="#72d8f7" style="fill: var(--color13, #72d8f7)" opacity="0.5" d="M25.24 3.86c0.132 0.038 0.25 0.124 0.347 0.278 0.53 0.842 0.241 2.609 0.237 3.546-0.003 0.688-0.222 2.966-0.697 3.51-0.31 0.355-0.774 0.575-1.223 0.785-1.216 0.567-2.433 1.136-3.693 1.622-0.067-1.104-0.084-2.211-0.053-3.317 0.020-0.717 0.069-3.27 0.332-3.965 0.366-0.961 2.509-1.753 3.45-2.128 0.477-0.191 0.944-0.434 1.301-0.332z"></path>
<path fill="#e9feff" style="fill: var(--color15, #e9feff)" d="M12.017 13.732c-0.35 0.112-0.701 0.224-1.051 0.336-0.231 0.074-0.508 0.207-0.509 0.452-0 0.263 0.314 0.389 0.569 0.445 0.83 0.182 1.661 0.365 2.491 0.547 0.121 0.027 0.289 0.027 0.322-0.094 0.019-0.071-0.026-0.142-0.071-0.2-0.5-0.634-1.312-0.957-1.798-1.601z"></path>
<path fill="#e9feff" style="fill: var(--color15, #e9feff)" d="M28.84 12.552c0.024 0.060 0.045 0.127 0.024 0.187-0.025 0.071-0.097 0.111-0.164 0.144-0.482 0.241-0.964 0.482-1.446 0.722-0.394 0.197-0.825 0.436-0.958 0.859 0.659 0.098 1.35-0.034 1.929-0.368 0.398-0.23 0.744-0.553 1.172-0.719 0.204-0.079 0.423-0.122 0.613-0.229s0.355-0.306 0.336-0.525c-0.025-0.292-0.337-0.457-0.607-0.566-0.315-0.128-0.629-0.256-0.944-0.384-0.273-0.111-0.493-0.154-0.666 0.066 0.285 0.216 0.57 0.469 0.71 0.815z"></path>
<path fill="#e9feff" style="fill: var(--color15, #e9feff)" d="M14.117 8.787c0.060 0.779 0.152 1.631 0.706 2.176 0.070-1.143 0.139-2.285 0.209-3.428 0.015-0.24 0.030-0.485 0.121-0.707s0.272-0.421 0.506-0.465c0.227-0.043 0.453 0.063 0.683 0.081s0.517-0.127 0.488-0.358c-0.024-0.2-0.257-0.29-0.451-0.338-0.727-0.18-1.921-0.513-2.356 0.319-0.343 0.656 0.039 2.017 0.093 2.719z"></path>
<path fill="#e9feff" style="fill: var(--color15, #e9feff)" d="M16.291 2.919c-0.532 0.149-1.031 0.413-1.456 0.77 1.123 0.245 2.251 0.468 3.383 0.67 0.206 0.037 0.504 0.001 0.506-0.21 0.001-0.131-0.129-0.22-0.244-0.281-0.733-0.393-1.494-0.735-2.273-1.023z"></path>
<path fill="#e9feff" style="fill: var(--color15, #e9feff)" d="M23.329 5.143c-0.044 0.027-0.089 0.059-0.11 0.106-0.047 0.11 0.063 0.226 0.174 0.268 0.218 0.082 0.46 0.030 0.693 0.018s0.503 0.041 0.615 0.248c0.071 0.13 0.059 0.288 0.053 0.437-0.026 0.64 0.098 1.287 0.358 1.871 0.231-0.298 0.239-0.712 0.213-1.090-0.039-0.573-0.13-1.143-0.273-1.7-0.037-0.142-0.080-0.29-0.18-0.397-0.338-0.361-1.217 0.037-1.544 0.24z"></path>
<path fill="#72d8f7" style="fill: var(--color13, #72d8f7)" opacity="0.5" d="M21.168 10.473c0.324 0.225 0.741 0.267 1.134 0.238 0.516-0.040 1.023-0.192 1.476-0.445 0.121-0.068 0.246-0.144 0.385-0.142s0.284 0.125 0.253 0.261c-0.012 0.052-0.047 0.095-0.082 0.136-0.855 0.997-2.141 1.482-3.37 1.926 0.050-0.018-0.52-2.336-0.306-2.61 0.129 0.186 0.303 0.492 0.512 0.637z"></path>
<path fill="#72d8f7" style="fill: var(--color13, #72d8f7)" opacity="0.5" d="M17.146 8.837c0.082 0.137 0.234 0.244 0.391 0.225 0.121-0.015 0.225-0.101 0.287-0.207s0.088-0.23 0.103-0.352c0.046-0.372 0.018-1.265-0.598-1.038-0.484 0.179-0.391 1.026-0.184 1.372z"></path>
<path fill="#b6eeff" style="fill: var(--color7, #b6eeff)" d="M17.164 8.656c0.066 0.111 0.189 0.197 0.316 0.181 0.098-0.012 0.182-0.082 0.232-0.167s0.071-0.185 0.083-0.284c0.037-0.301 0.014-1.021-0.483-0.838-0.391 0.144-0.316 0.828-0.148 1.108z"></path>
<path fill="#e9fcff" style="fill: var(--color16, #e9fcff)" d="M17.242 7.74c-0 0.046 0.020 0.089 0.046 0.126 0.020 0.029 0.045 0.055 0.074 0.074 0.052 0.034 0.118 0.042 0.18 0.032 0.012-0.002 0.024-0.004 0.034-0.012 0.011-0.009 0.017-0.023 0.020-0.038 0.021-0.083-0.003-0.176-0.063-0.236-0.083-0.085-0.29-0.12-0.292 0.053z"></path>
<path fill="#e9fcff" style="fill: var(--color16, #e9fcff)" d="M17.604 8.198c0.018 0.025 0.049 0.045 0.077 0.034 0.024-0.009 0.035-0.036 0.043-0.061 0.018-0.057-0.001-0.156-0.083-0.14-0.075 0.014-0.072 0.121-0.037 0.168z"></path>
<path fill="#e9fcff" style="fill: var(--color16, #e9fcff)" d="M17.265 8.613c0.061 0.038 0.141 0.048 0.207 0.018 0.061-0.028 0.103-0.085 0.15-0.134 0.012-0.012 0.030-0.024 0.043-0.013 0.005 0.004 0.007 0.011 0.009 0.017 0.008 0.036-0.004 0.075-0.025 0.106s-0.049 0.055-0.077 0.080c-0.027 0.023-0.055 0.047-0.090 0.054-0.027 0.005-0.056-0.001-0.083-0.009-0.063-0.019-0.124-0.051-0.171-0.097-0.031-0.030-0.090-0.102-0.076-0.149 0.030 0.051 0.063 0.097 0.114 0.128z"></path>
<path fill="#72d8f7" style="fill: var(--color13, #72d8f7)" opacity="0.5" d="M12.608 20.485c0.082 0.137 0.234 0.244 0.391 0.225 0.121-0.015 0.225-0.101 0.287-0.207s0.088-0.229 0.103-0.352c0.046-0.372 0.018-1.265-0.598-1.038-0.484 0.179-0.391 1.026-0.184 1.372z"></path>
<path fill="#b6eeff" style="fill: var(--color7, #b6eeff)" d="M12.626 20.304c0.066 0.111 0.189 0.197 0.316 0.181 0.098-0.012 0.182-0.082 0.232-0.167s0.071-0.185 0.083-0.284c0.037-0.301 0.014-1.021-0.483-0.838-0.391 0.144-0.316 0.829-0.148 1.108z"></path>
<path fill="#e9fcff" style="fill: var(--color16, #e9fcff)" d="M12.704 19.389c-0 0.046 0.020 0.089 0.046 0.126 0.020 0.029 0.045 0.055 0.074 0.074 0.052 0.034 0.118 0.042 0.18 0.032 0.012-0.002 0.024-0.004 0.034-0.012 0.011-0.009 0.017-0.023 0.020-0.038 0.021-0.083-0.003-0.176-0.063-0.236-0.083-0.085-0.29-0.12-0.292 0.053z"></path>
<path fill="#e9fcff" style="fill: var(--color16, #e9fcff)" d="M13.067 19.847c0.018 0.024 0.049 0.045 0.077 0.034 0.024-0.009 0.035-0.037 0.043-0.061 0.018-0.057-0.001-0.156-0.083-0.14-0.075 0.014-0.072 0.121-0.037 0.168z"></path>
<path fill="#e9fcff" style="fill: var(--color16, #e9fcff)" d="M12.727 20.261c0.061 0.038 0.141 0.048 0.207 0.018 0.061-0.028 0.103-0.086 0.15-0.134 0.012-0.012 0.030-0.024 0.043-0.013 0.005 0.004 0.007 0.011 0.009 0.017 0.008 0.036-0.004 0.075-0.025 0.106s-0.049 0.055-0.077 0.080c-0.027 0.023-0.055 0.047-0.090 0.054-0.028 0.005-0.056-0.001-0.083-0.009-0.063-0.019-0.124-0.051-0.171-0.097-0.031-0.030-0.090-0.101-0.076-0.149 0.029 0.051 0.063 0.097 0.113 0.128z"></path>
<path fill="#72d8f7" style="fill: var(--color13, #72d8f7)" opacity="0.5" d="M23.251 8.825c-0.118 0.197-0.335 0.35-0.561 0.323-0.174-0.021-0.323-0.145-0.413-0.297s-0.126-0.329-0.148-0.505c-0.066-0.534-0.025-1.815 0.858-1.489 0.695 0.256 0.561 1.472 0.264 1.969z"></path>
<path fill="#b6eeff" style="fill: var(--color7, #b6eeff)" d="M23.226 8.566c-0.095 0.159-0.271 0.282-0.453 0.26-0.14-0.017-0.261-0.117-0.333-0.24s-0.102-0.266-0.12-0.408c-0.054-0.431-0.020-1.465 0.693-1.202 0.561 0.207 0.453 1.189 0.213 1.59z"></path>
<path fill="#e9fcff" style="fill: var(--color16, #e9fcff)" d="M23.114 7.252c0.001 0.066-0.029 0.128-0.067 0.181-0.029 0.041-0.064 0.080-0.106 0.107-0.075 0.049-0.17 0.060-0.258 0.047-0.017-0.003-0.035-0.006-0.049-0.017-0.016-0.013-0.024-0.034-0.029-0.054-0.031-0.118 0.004-0.252 0.090-0.339 0.12-0.123 0.417-0.172 0.42 0.076z"></path>
<path fill="#e9fcff" style="fill: var(--color16, #e9fcff)" d="M22.592 7.909c-0.026 0.035-0.070 0.064-0.111 0.049-0.035-0.013-0.050-0.053-0.062-0.088-0.026-0.081 0.002-0.224 0.119-0.202 0.107 0.020 0.103 0.173 0.053 0.241z"></path>
<path fill="#e9fcff" style="fill: var(--color16, #e9fcff)" d="M23.081 8.504c-0.088 0.054-0.203 0.069-0.297 0.026-0.088-0.040-0.148-0.123-0.215-0.193-0.017-0.017-0.044-0.034-0.062-0.019-0.007 0.006-0.010 0.015-0.012 0.024-0.012 0.052 0.006 0.108 0.036 0.152s0.071 0.080 0.111 0.114c0.038 0.033 0.079 0.067 0.129 0.077 0.039 0.008 0.080-0.001 0.119-0.013 0.091-0.028 0.177-0.072 0.245-0.139 0.045-0.044 0.129-0.146 0.109-0.213-0.042 0.073-0.090 0.139-0.163 0.184z"></path>
<path fill="#72d8f7" style="fill: var(--color13, #72d8f7)" opacity="0.5" d="M30.798 18.95c-0.118 0.197-0.335 0.35-0.561 0.323-0.174-0.021-0.323-0.145-0.413-0.297s-0.126-0.329-0.148-0.505c-0.066-0.534-0.025-1.815 0.858-1.489 0.695 0.256 0.561 1.472 0.264 1.968z"></path>
<path fill="#b6eeff" style="fill: var(--color7, #b6eeff)" d="M30.772 18.691c-0.095 0.159-0.271 0.282-0.453 0.26-0.14-0.017-0.261-0.117-0.333-0.24s-0.102-0.266-0.12-0.408c-0.054-0.431-0.020-1.465 0.693-1.202 0.561 0.207 0.453 1.189 0.213 1.59z"></path>
<path fill="#e9fcff" style="fill: var(--color16, #e9fcff)" d="M30.66 17.377c0.001 0.066-0.029 0.128-0.067 0.181-0.029 0.041-0.064 0.079-0.106 0.107-0.075 0.048-0.17 0.060-0.258 0.047-0.017-0.003-0.035-0.006-0.049-0.017-0.016-0.013-0.024-0.034-0.029-0.054-0.031-0.118 0.004-0.252 0.090-0.339 0.12-0.123 0.417-0.172 0.42 0.075z"></path>
<path fill="#e9fcff" style="fill: var(--color16, #e9fcff)" d="M30.139 18.034c-0.026 0.035-0.070 0.064-0.111 0.049-0.035-0.013-0.050-0.053-0.062-0.088-0.026-0.081 0.002-0.224 0.119-0.201 0.107 0.020 0.103 0.173 0.053 0.241z"></path>
<path fill="#e9fcff" style="fill: var(--color16, #e9fcff)" d="M30.628 18.629c-0.088 0.054-0.203 0.069-0.297 0.026-0.088-0.040-0.148-0.123-0.215-0.193-0.017-0.017-0.044-0.035-0.062-0.019-0.007 0.006-0.010 0.015-0.012 0.024-0.012 0.052 0.006 0.108 0.036 0.152s0.071 0.080 0.111 0.114c0.039 0.033 0.079 0.067 0.129 0.077 0.039 0.008 0.080-0.001 0.119-0.013 0.091-0.028 0.177-0.072 0.245-0.139 0.045-0.044 0.129-0.146 0.109-0.213-0.042 0.073-0.090 0.139-0.163 0.184z"></path>
<path fill="#72d8f7" style="fill: var(--color13, #72d8f7)" opacity="0.5" d="M31.766 16.212c-0.091 0.152-0.259 0.27-0.433 0.249-0.134-0.016-0.249-0.112-0.318-0.229s-0.098-0.254-0.114-0.39c-0.051-0.412-0.019-1.401 0.662-1.149 0.536 0.198 0.433 1.136 0.203 1.52z"></path>
<path fill="#b6eeff" style="fill: var(--color7, #b6eeff)" d="M31.747 16.012c-0.073 0.123-0.209 0.218-0.35 0.201-0.108-0.013-0.201-0.091-0.257-0.185s-0.079-0.205-0.092-0.315c-0.041-0.333-0.016-1.131 0.535-0.928 0.433 0.16 0.35 0.917 0.164 1.227z"></path>
<path fill="#e9fcff" style="fill: var(--color16, #e9fcff)" d="M31.66 14.998c0.001 0.051-0.022 0.099-0.051 0.14-0.023 0.032-0.049 0.061-0.082 0.082-0.058 0.037-0.131 0.046-0.199 0.036-0.013-0.002-0.027-0.005-0.038-0.013-0.012-0.010-0.019-0.026-0.023-0.042-0.024-0.091 0.003-0.195 0.069-0.262 0.092-0.095 0.321-0.133 0.324 0.058z"></path>
<path fill="#e9fcff" style="fill: var(--color16, #e9fcff)" d="M31.258 15.505c-0.020 0.027-0.054 0.049-0.085 0.038-0.027-0.010-0.039-0.040-0.048-0.068-0.020-0.063 0.001-0.173 0.092-0.156 0.083 0.015 0.079 0.133 0.041 0.186z"></path>
<path fill="#e9fcff" style="fill: var(--color16, #e9fcff)" d="M31.634 15.964c-0.068 0.042-0.156 0.053-0.229 0.020-0.068-0.031-0.114-0.095-0.166-0.149-0.013-0.013-0.033-0.027-0.048-0.015-0.005 0.005-0.008 0.012-0.009 0.019-0.009 0.040 0.005 0.083 0.028 0.117s0.054 0.061 0.086 0.088c0.030 0.026 0.061 0.052 0.099 0.059 0.030 0.006 0.062-0.001 0.091-0.010 0.070-0.021 0.137-0.056 0.189-0.107 0.034-0.034 0.1-0.112 0.084-0.165-0.032 0.056-0.069 0.108-0.126 0.142z"></path>
<path fill="#72d8f7" style="fill: var(--color13, #72d8f7)" opacity="0.5" d="M16.039 10.008c0.082 0.137 0.234 0.244 0.391 0.225 0.121-0.015 0.225-0.101 0.287-0.207s0.088-0.229 0.103-0.352c0.046-0.372 0.018-1.265-0.598-1.038-0.484 0.179-0.391 1.026-0.184 1.372z"></path>
<path fill="#b6eeff" style="fill: var(--color7, #b6eeff)" d="M16.057 9.827c0.066 0.111 0.189 0.197 0.316 0.181 0.098-0.012 0.182-0.082 0.232-0.167s0.071-0.185 0.083-0.284c0.037-0.301 0.014-1.021-0.483-0.838-0.391 0.144-0.316 0.829-0.148 1.108z"></path>
<path fill="#e9fcff" style="fill: var(--color16, #e9fcff)" d="M16.135 8.912c-0.001 0.046 0.020 0.089 0.046 0.126 0.020 0.029 0.045 0.055 0.074 0.074 0.052 0.034 0.118 0.042 0.18 0.032 0.012-0.002 0.024-0.004 0.034-0.012 0.011-0.009 0.017-0.023 0.020-0.038 0.021-0.083-0.003-0.176-0.063-0.236-0.083-0.085-0.29-0.12-0.292 0.053z"></path>
<path fill="#e9fcff" style="fill: var(--color16, #e9fcff)" d="M16.497 9.37c0.018 0.025 0.049 0.045 0.077 0.034 0.024-0.009 0.035-0.037 0.043-0.061 0.018-0.057-0.001-0.156-0.083-0.14-0.075 0.014-0.072 0.121-0.037 0.168z"></path>
<path fill="#e9fcff" style="fill: var(--color16, #e9fcff)" d="M16.157 9.785c0.061 0.038 0.141 0.048 0.207 0.018 0.061-0.028 0.103-0.085 0.15-0.134 0.012-0.012 0.030-0.024 0.043-0.014 0.005 0.004 0.007 0.011 0.009 0.017 0.008 0.036-0.004 0.075-0.025 0.106s-0.049 0.055-0.077 0.080c-0.027 0.023-0.055 0.047-0.090 0.054-0.028 0.005-0.056-0.001-0.083-0.009-0.063-0.019-0.124-0.051-0.171-0.097-0.031-0.030-0.090-0.102-0.076-0.149 0.029 0.051 0.063 0.097 0.113 0.128z"></path>
<path fill="#72d8f7" style="fill: var(--color13, #72d8f7)" opacity="0.5" d="M11.479 19.145c0.052 0.087 0.148 0.155 0.248 0.142 0.077-0.009 0.143-0.064 0.182-0.131s0.056-0.146 0.066-0.223c0.029-0.236 0.011-0.803-0.38-0.658-0.307 0.113-0.248 0.651-0.117 0.87z"></path>
<path fill="#b6eeff" style="fill: var(--color7, #b6eeff)" d="M11.49 19.030c0.042 0.070 0.12 0.125 0.2 0.115 0.062-0.008 0.115-0.052 0.147-0.106s0.045-0.118 0.053-0.18c0.024-0.191 0.009-0.648-0.306-0.532-0.248 0.091-0.2 0.526-0.094 0.703z"></path>
<path fill="#e9fcff" style="fill: var(--color16, #e9fcff)" d="M11.54 18.449c-0 0.029 0.013 0.057 0.030 0.080 0.013 0.018 0.028 0.035 0.047 0.047 0.033 0.021 0.075 0.026 0.114 0.021 0.008-0.001 0.016-0.003 0.022-0.008 0.007-0.006 0.010-0.015 0.013-0.024 0.014-0.052-0.002-0.112-0.040-0.15-0.053-0.054-0.184-0.076-0.185 0.034z"></path>
<path fill="#e9fcff" style="fill: var(--color16, #e9fcff)" d="M11.769 18.739c0.011 0.015 0.031 0.028 0.049 0.021 0.015-0.006 0.022-0.023 0.027-0.039 0.011-0.036-0.001-0.099-0.053-0.089-0.047 0.009-0.045 0.077-0.023 0.106z"></path>
<path fill="#e9fcff" style="fill: var(--color16, #e9fcff)" d="M11.553 19.003c0.039 0.024 0.090 0.030 0.131 0.011 0.039-0.018 0.065-0.054 0.095-0.085 0.007-0.008 0.019-0.015 0.027-0.008 0.003 0.003 0.005 0.007 0.005 0.011 0.005 0.023-0.003 0.047-0.016 0.067s-0.031 0.035-0.049 0.051c-0.017 0.015-0.035 0.030-0.057 0.034-0.018 0.003-0.035-0-0.052-0.006-0.040-0.012-0.079-0.032-0.108-0.062-0.020-0.019-0.057-0.064-0.048-0.094 0.019 0.032 0.040 0.062 0.072 0.081z"></path>
</symbol>

<symbol id="icon-star" viewBox="0 0 33 32">
<path fill="#ffcf01" style="fill: var(--color2, #ffcf01)" d="M24.526 17.326c2.602 2.841 4.518 6.589 3.241 8.184s-5.357 0.551-8.703-1.362c-1.901 3.352-4.877 6.333-6.79 5.613s-2.177-4.92-1.389-8.692c-3.778-0.769-7.533-2.675-7.438-4.715s4.012-3.592 7.845-4.010c-0.433-3.828 0.222-7.986 2.193-8.527s4.657 2.701 6.237 6.213c3.51-1.596 7.67-2.261 8.793-0.555s-1.134 5.261-3.99 7.85z"></path>
<path fill="#feb100" style="fill: var(--color1, #feb100)" d="M24.527 17.326c2.602 2.841 4.518 6.589 3.241 8.184s-5.357 0.551-8.703-1.362c-1.902 3.352-4.878 6.333-6.79 5.613-1.548-0.583-2.016-3.448-1.72-6.519 3.547 0.109 7.943-1.622 10.3-4.608 2.3-2.914 2.67-6.606 1.971-9.714 2.549-0.671 4.891-0.658 5.691 0.557 1.123 1.706-1.134 5.261-3.99 7.85z"></path>
<path fill="#282828" style="fill: var(--color17, #282828)" d="M28.721 9.307c-0.224-0.381-0.581-0.648-0.981-0.825-0.457-0.202-0.963-0.28-1.459-0.305-0.626-0.032-1.252 0.015-1.871 0.109-1.443 0.218-2.852 0.665-4.194 1.231-0.128 0.054-0.255 0.109-0.382 0.166-0.606-1.324-1.347-2.599-2.253-3.742-0.722-0.909-1.586-1.842-2.681-2.295-0.4-0.165-0.85-0.248-1.28-0.161-0.438 0.089-0.824 0.347-1.121 0.676-0.796 0.882-1.12 2.124-1.317 3.265-0.254 1.466-0.269 2.979-0.144 4.459 0.005 0.061 0.011 0.122 0.016 0.183-1.373 0.168-2.738 0.467-4.038 0.942-1.090 0.399-2.25 0.922-3.043 1.8-0.322 0.356-0.586 0.782-0.68 1.257-0.097 0.488-0.026 0.968 0.189 1.415 0.22 0.456 0.579 0.845 0.958 1.175 0.475 0.413 1.013 0.752 1.567 1.048 1.325 0.708 2.765 1.202 4.227 1.544 0.134 0.031 0.269 0.061 0.403 0.090-0.271 1.401-0.411 2.833-0.356 4.259 0.025 0.665 0.098 1.33 0.246 1.98 0.121 0.531 0.298 1.064 0.584 1.53 0.238 0.388 0.557 0.72 0.974 0.912 0.387 0.178 0.834 0.191 1.246 0.104 1.108-0.234 2.071-1.035 2.859-1.806 1.051-1.029 1.944-2.227 2.704-3.483 0.065-0.107 0.128-0.215 0.191-0.323 1.252 0.702 2.578 1.291 3.96 1.683 0.619 0.176 1.252 0.312 1.893 0.372 0.536 0.049 1.090 0.054 1.617-0.068 0.436-0.101 0.861-0.294 1.178-0.618 0.349-0.357 0.536-0.825 0.609-1.313 0.080-0.532 0.006-1.083-0.12-1.601-0.15-0.614-0.391-1.206-0.667-1.774-0.655-1.347-1.539-2.582-2.516-3.714-0.050-0.057-0.1-0.114-0.15-0.171 1.018-0.959 1.952-2.022 2.724-3.187 0.371-0.56 0.708-1.149 0.965-1.769 0.217-0.523 0.389-1.081 0.425-1.649 0.030-0.479-0.034-0.975-0.281-1.395zM28.571 10.239c0.002 0.008 0.008 0.038 0.010 0.050s0.007 0.044 0.008 0.051c0.007 0.055 0.013 0.109 0.016 0.164 0.003 0.046 0.004 0.093 0.005 0.139-0 0.009-0 0.035-0.001 0.046-0.001 0.032-0.003 0.063-0.005 0.095-0.007 0.111-0.021 0.222-0.040 0.332-0.002 0.008-0.008 0.040-0.010 0.051-0.006 0.029-0.012 0.059-0.019 0.088-0.014 0.065-0.030 0.129-0.048 0.193-0.016 0.061-0.034 0.121-0.053 0.181-0.009 0.031-0.019 0.061-0.029 0.092-0.004 0.011-0.023 0.068-0.024 0.071-0.198 0.558-0.472 1.083-0.78 1.582-0.754 1.223-1.704 2.325-2.74 3.318-0.135 0.129-0.272 0.257-0.411 0.383-0.108 0.099-0.155 0.293-0.113 0.432 0.010 0.034 0.026 0.061 0.044 0.080 0.005 0.007 0.010 0.013 0.016 0.019 0.976 1.068 1.852 2.243 2.547 3.514 0.299 0.547 0.564 1.114 0.759 1.707 0.085 0.261 0.159 0.528 0.208 0.798 0.013 0.074 0.033 0.219 0.043 0.321 0.006 0.058 0.010 0.115 0.013 0.173 0.001 0.028 0.003 0.057 0.003 0.085 0 0.008 0.001 0.077 0.001 0.080-0.002 0.101-0.009 0.201-0.022 0.301-0.003 0.026-0.008 0.051-0.011 0.077-0 0.003-0.001 0.005-0.001 0.007s-0.002 0.006-0.003 0.010c-0.014 0.056-0.025 0.113-0.042 0.169-0.007 0.024-0.015 0.047-0.022 0.070 0.025-0.080 0.001-0.003-0.005 0.012-0.018 0.044-0.036 0.088-0.057 0.132-0.006 0.013-0.013 0.025-0.019 0.038-0.005 0.008-0.018 0.034-0.022 0.040-0.030 0.047-0.060 0.092-0.093 0.137-0.003 0.004-0.023 0.028-0.028 0.035-0.008 0.009-0.016 0.018-0.024 0.027-0.029 0.031-0.058 0.062-0.089 0.091-0.089 0.084-0.115 0.103-0.209 0.163-0.171 0.11-0.351 0.189-0.536 0.244-1.038 0.309-2.201 0.106-3.226-0.155-1.533-0.389-3.006-1.034-4.377-1.816-0.092-0.052-0.193-0.004-0.244 0.086-0.7 1.231-1.521 2.407-2.49 3.444-0.748 0.8-1.634 1.628-2.684 2.005-0.385 0.138-0.801 0.209-1.196 0.12-0.382-0.085-0.714-0.319-0.951-0.619-0.659-0.835-0.838-1.997-0.918-3.031-0.107-1.401 0.008-2.825 0.254-4.206 0.033-0.183 0.069-0.366 0.107-0.549 0.021-0.1 0.040-0.324-0.103-0.353-1.435-0.294-2.852-0.731-4.178-1.357-0.569-0.269-1.122-0.578-1.633-0.947-0.413-0.299-0.812-0.64-1.11-1.057-0.065-0.091-0.126-0.186-0.179-0.284-0.055-0.101-0.086-0.167-0.118-0.254-0.033-0.091-0.060-0.184-0.079-0.278-0.002-0.009-0.005-0.029-0.006-0.038-0.003-0.024-0.006-0.047-0.008-0.071s-0.004-0.047-0.005-0.071c-0-0.008-0.001-0.039-0.002-0.055 0-0.014 0.001-0.038 0.001-0.044 0.001-0.027 0.003-0.053 0.006-0.080 0.002-0.023 0.006-0.045 0.008-0.068 0-0.003 0-0.005 0.001-0.007 0.001-0.003 0.002-0.007 0.003-0.012 0.010-0.045 0.021-0.090 0.034-0.134 0.001-0.005 0.006-0.019 0.010-0.032 0.005-0.014 0.016-0.046 0.020-0.054 0.018-0.044 0.037-0.087 0.058-0.13 0.010-0.022 0.022-0.043 0.033-0.064 0.002-0.005 0.004-0.008 0.005-0.010 0.002-0.004 0.006-0.009 0.011-0.018 0.056-0.090 0.113-0.177 0.178-0.261 0.052-0.067 0.107-0.13 0.193-0.219 0.083-0.085 0.169-0.166 0.259-0.244 0.188-0.163 0.388-0.305 0.6-0.44 0.504-0.321 1.047-0.578 1.601-0.799 1.297-0.516 2.68-0.832 4.061-1.020 0.179-0.024 0.359-0.046 0.539-0.066 0.166-0.018 0.242-0.29 0.227-0.42-0.16-1.428-0.182-2.879 0.001-4.306 0.078-0.604 0.195-1.199 0.382-1.786 0.072-0.225 0.164-0.468 0.281-0.713 0.102-0.214 0.191-0.374 0.344-0.584 0.208-0.285 0.511-0.568 0.866-0.69 0.382-0.131 0.775-0.1 1.155 0.022 0.466 0.15 0.883 0.422 1.263 0.726 0.471 0.377 0.895 0.815 1.281 1.279 1.024 1.23 1.841 2.635 2.498 4.091 0.035 0.077 0.12 0.078 0.185 0.048 1.288-0.584 2.641-1.046 4.030-1.318 1.087-0.213 2.279-0.356 3.366-0.061 0.395 0.107 0.767 0.279 1.055 0.577 0.061 0.063 0.107 0.121 0.164 0.208 0.026 0.040 0.050 0.081 0.072 0.122 0.011 0.021 0.022 0.042 0.032 0.063 0.021 0.044 0.005 0.007 0.018 0.040 0.038 0.093 0.067 0.19 0.089 0.288z"></path>
<path fill="#fff" style="fill: var(--color18, #fff)" d="M14.504 8.534c-0.017 1.564-0.612 2.826-1.329 2.819s-0.976-1.278-0.959-2.842c0.017-1.564 0.303-2.829 1.020-2.822s1.284 1.281 1.267 2.846z"></path>
<path fill="#fff" style="fill: var(--color18, #fff)" d="M13.061 13.148c-0.272 0.487-0.764 0.797-1.1 0.692s-0.243-0.54 0.028-1.028c0.272-0.487 0.619-0.843 0.955-0.738s0.388 0.586 0.116 1.073z"></path>
</symbol>

<symbol id="icon-arrow-up" viewBox="0 0 32 32">
<path d="M26.84 23.347l2.36-2.373-13.2-13.187-13.2 13.2 2.36 2.36 10.84-10.84 10.84 10.84z"></path>
</symbol>

<symbol id="icon-close" viewBox="0 0 32 32">
<path d="M3.2 32l-3.2-3.2 12.8-12.8-12.8-12.8 3.2-3.2 12.8 12.8 12.8-12.8 3.2 3.2-12.8 12.8 12.8 12.8-3.2 3.2-12.8-12.8-12.8 12.8z"></path>
</symbol>

<symbol id="icon-west-arrow" viewBox="0 0 32 32">
<path d="M12 25.333l1.88-1.88-6.107-6.12h21.56v-2.667h-21.56l6.12-6.12-1.893-1.88-9.333 9.333 9.333 9.333z"></path>
</symbol>

<symbol id="icon-play" viewBox="0 0 30 32">
<path fill="#ea4335" style="fill: var(--color1, #ea4335)" d="M13.518 15.256l-13.398 14.038c0.15 0.533 0.421 1.025 0.79 1.438s0.829 0.735 1.342 0.944c0.514 0.208 1.068 0.296 1.62 0.257s1.089-0.204 1.568-0.482l15.076-8.586-6.999-7.608z"></path>
<path fill="#fbbc04" style="fill: var(--color2, #fbbc04)" d="M27.067 12.869l-6.519-3.734-7.338 6.44 7.368 7.268 6.47-3.694c0.573-0.3 1.053-0.751 1.388-1.305s0.512-1.188 0.512-1.835-0.177-1.282-0.512-1.835c-0.335-0.554-0.815-1.005-1.388-1.305l0.020 0z"></path>
<path fill="#4285f4" style="fill: var(--color3, #4285f4)" d="M0.12 2.656c-0.081 0.299-0.121 0.608-0.12 0.918v24.8c0.001 0.31 0.041 0.619 0.12 0.919l13.858-13.678-13.858-12.959z"></path>
<path fill="#34a853" style="fill: var(--color4, #34a853)" d="M13.618 15.974l6.929-6.839-15.056-8.626c-0.566-0.332-1.211-0.507-1.867-0.509-1.629-0.003-3.061 1.078-3.504 2.646l13.498 13.329z"></path>
</symbol>

<symbol id="icon-piece" viewBox="0 0 25 32">
<path stroke-linejoin="miter" stroke-linecap="butt" stroke-miterlimit="4" stroke-width="0.5161" d="M17.011 3.657c-0.053-0.012-0.107-0.021-0.161-0.029-0.023-0.003-0.046-0.006-0.069-0.009-0.050-0.006-0.101-0.010-0.153-0.013-0.021-0.001-0.042-0.003-0.064-0.004-0.070-0.002-0.141-0.003-0.213 0.001-0.087 0.004-0.176 0.012-0.267 0.025-0.032 0.004-0.063 0.009-0.095 0.015-0.016 0.003-0.032 0.007-0.048 0.010-0.073 0.013-0.145 0.028-0.217 0.044-0.020 0.005-0.041 0.009-0.061 0.014-0.093 0.023-0.185 0.048-0.276 0.076-0.010 0.003-0.020 0.006-0.030 0.010-0.082 0.025-0.164 0.052-0.245 0.081-0.023 0.008-0.045 0.016-0.068 0.024-0.073 0.026-0.146 0.053-0.219 0.081-0.012 0.005-0.024 0.009-0.036 0.013-0.158 0.061-0.314 0.125-0.47 0.189-1.12 0.455-2.233 0.927-3.35 1.384-0.446 0.181-0.97 0.276-1.395 0.052-0.832-0.438-0.711-1.194-0.481-1.978 0.006-0.022 0.013-0.043 0.019-0.065 0.004-0.015 0.009-0.029 0.013-0.044 0.064-0.211 0.133-0.422 0.19-0.63 0.001-0.004 0.002-0.009 0.004-0.013 0.008-0.031 0.017-0.061 0.024-0.092 0.003-0.012 0.007-0.025 0.010-0.037 0.007-0.027 0.013-0.054 0.020-0.082 0.004-0.015 0.007-0.030 0.011-0.046 0.006-0.025 0.011-0.051 0.016-0.076 0.003-0.017 0.007-0.033 0.010-0.050 0.004-0.024 0.008-0.048 0.012-0.072 0.003-0.017 0.005-0.035 0.008-0.052 0.003-0.023 0.006-0.046 0.008-0.068 0.002-0.018 0.003-0.035 0.005-0.053 0.002-0.022 0.003-0.044 0.004-0.065 0.001-0.018 0.001-0.036 0.001-0.054 0-0.021 0.001-0.042 0-0.062-0-0.018-0.002-0.036-0.003-0.054-0.001-0.020-0.002-0.039-0.004-0.059s-0.005-0.037-0.008-0.056c-0.003-0.018-0.005-0.036-0.008-0.054-0.005-0.023-0.011-0.045-0.017-0.067-0.003-0.012-0.006-0.025-0.009-0.037-0.001-0.003-0.002-0.006-0.003-0.009-0.015-0.049-0.034-0.095-0.055-0.14-0.007-0.015-0.014-0.029-0.022-0.044-0.009-0.018-0.017-0.036-0.027-0.053-0.41-0.72-1.484-0.907-2.343-0.75-0.869 0.159-1.699 0.536-2.39 1.088-0.432 0.345-0.822 0.778-0.991 1.301-0.013 0.041-0.025 0.082-0.035 0.123-0.143 0.579 0.053 1.271 0.573 1.564 0.095 0.054 0.194 0.092 0.298 0.121 0.008 0.002 0.017 0.004 0.025 0.006 0.034 0.009 0.069 0.016 0.104 0.023 0.012 0.002 0.025 0.005 0.037 0.007 0.1 0.018 0.202 0.029 0.305 0.037 0.005 0 0.009 0.001 0.014 0.001 0.112 0.008 0.226 0.014 0.338 0.021 0.023 0.001 0.045 0.003 0.068 0.005 0.032 0.002 0.064 0.005 0.096 0.008 0.040 0.004 0.080 0.008 0.119 0.013 0.016 0.002 0.033 0.005 0.049 0.007 0.033 0.005 0.066 0.010 0.098 0.017 0.009 0.002 0.018 0.003 0.027 0.005 0.147 0.030 0.287 0.077 0.418 0.154 0.54 0.32 0.691 1.066 0.497 1.667-0.006 0.020-0.013 0.039-0.020 0.059-0.005 0.015-0.011 0.030-0.017 0.044-0.015 0.037-0.031 0.073-0.047 0.109-0.263 0.563-0.763 0.984-1.272 1.348-0.174 0.124-0.351 0.245-0.53 0.361-0.031 0.020-0.064 0.038-0.095 0.058-0.14 0.089-0.282 0.176-0.425 0.26-0.059 0.035-0.118 0.069-0.177 0.103-0.163 0.092-0.327 0.181-0.493 0.267-0.023 0.012-0.046 0.026-0.069 0.037-0.599 0.303-1.236 0.574-1.705 1.054-0.011 0.011-0.021 0.023-0.032 0.035-0.028 0.030-0.056 0.060-0.083 0.091-0.017 0.020-0.032 0.040-0.048 0.060-0.020 0.025-0.040 0.050-0.059 0.076-0.016 0.022-0.031 0.044-0.046 0.066-0.018 0.025-0.035 0.051-0.052 0.077-0.015 0.023-0.029 0.046-0.043 0.069-0.016 0.026-0.031 0.053-0.046 0.080-0.013 0.023-0.026 0.047-0.038 0.070-0.015 0.028-0.028 0.057-0.042 0.085-0.011 0.023-0.022 0.046-0.033 0.069-0.014 0.032-0.028 0.065-0.041 0.098-0.008 0.020-0.017 0.041-0.025 0.061-0.020 0.052-0.038 0.104-0.055 0.156-0 0.001-0 0.002-0.001 0.002-0.021 0.064-0.039 0.129-0.056 0.195-0.003 0.012-0.005 0.024-0.008 0.036-0.013 0.053-0.025 0.106-0.036 0.159-0.004 0.021-0.007 0.042-0.011 0.063-0.008 0.045-0.016 0.090-0.022 0.136-0.003 0.024-0.006 0.048-0.009 0.072-0.005 0.043-0.010 0.086-0.014 0.13-0.002 0.025-0.004 0.050-0.006 0.075-0.003 0.043-0.005 0.086-0.007 0.129-0.001 0.025-0.002 0.049-0.002 0.074-0.001 0.044-0.001 0.089-0 0.133 0 0.023 0 0.046 0.001 0.069 0.001 0.049 0.004 0.098 0.007 0.147 0.001 0.018 0.002 0.036 0.003 0.054 0.005 0.067 0.011 0.134 0.019 0.2 0 0.001 0 0.002 0 0.003 0 0 0 0 0 0 0.001 0.008 0.002 0.017 0.003 0.026 0.001 0.007 0.002 0.013 0.003 0.020 0.001 0.004 0.001 0.007 0.001 0.011 0.175 1.362 0.843 3.133 1.676 4.217 0.395 0.515 1.485 1.338 2.173 0.891 0.394-0.255 0.55-0.912 0.742-1.312 0.205-0.424 0.563-0.779 1.003-0.943 0.463-0.173 1.007-0.129 1.412 0.162 0.257 0.185 0.457 0.437 0.635 0.699 0.388 0.567 0.691 1.193 0.898 1.848 0.098 0.313 0.169 0.655 0.145 0.978-0.025 0.339-0.154 0.656-0.466 0.887-0.575 0.427-1.417 0.377-2.075 0.212-0.447-0.111-0.944-0.27-1.397-0.148 0 0-0 0 0 0-0.072 0.019-0.142 0.048-0.212 0.083-0.019 0.009-0.038 0.017-0.057 0.028-0.091 0.052-0.169 0.12-0.24 0.194-0.254 0.27-0.38 0.663-0.379 1.040-0 0.482 0.171 0.946 0.344 1.395 0.075 0.194 0.152 0.388 0.231 0.581 0.194 0.475 0.405 0.943 0.65 1.391 0.245 0.449 0.524 0.877 0.858 1.265 0.573 0.667 1.335 1.208 2.172 1.446 0.334 0.095 0.68 0.143 1.031 0.13 1.523-0.062 2.777-1.195 4.228-1.662 0.126-0.040 0.255-0.075 0.385-0.103 0.209-0.044 0.422-0.068 0.633-0.063 0.183 0.004 0.365 0.030 0.54 0.086 0.441 0.139 0.832 0.497 0.94 0.938 0.015 0.063 0.025 0.128 0.028 0.193 0.034 0.719-0.655 1.321-0.619 2.038 0.035 0.68 0.693 1.11 1.387 1.261 0.151 0.033 0.304 0.053 0.452 0.059 0.33 0.013 0.662-0.013 0.986-0.076 0.241-0.047 0.478-0.116 0.709-0.202 0.279-0.104 0.548-0.234 0.8-0.391 0.298-0.186 0.574-0.406 0.817-0.659 0.337-0.348 0.62-0.769 0.708-1.247s-0.052-1.014-0.432-1.314c-0.86-0.674-2.392-0.022-2.657-1.46-0.198-1.081 0.881-1.834 1.695-2.278 0.162-0.087 0.327-0.17 0.493-0.249 0.029-0.014 0.059-0.027 0.089-0.041 0.096-0.045 0.191-0.089 0.288-0.132 0.050-0.022 0.101-0.045 0.151-0.067 0.098-0.043 0.197-0.086 0.295-0.128 0.134-0.058 0.269-0.116 0.403-0.174 0.003-0.002 0.007-0.003 0.011-0.005 0.018-0.008 0.037-0.016 0.055-0.024 0.010-0.004 0.020-0.009 0.030-0.013 0.089-0.039 0.178-0.079 0.266-0.119 0.003-0.001 0.006-0.003 0.009-0.004 0.035-0.016 0.070-0.032 0.105-0.049 0.005-0.002 0.009-0.004 0.014-0.006 0.082-0.038 0.164-0.077 0.245-0.117 0.003-0.001 0.006-0.003 0.009-0.004 0.034-0.016 0.067-0.033 0.101-0.050 0.003-0.001 0.006-0.003 0.008-0.004 0.116-0.059 0.231-0.119 0.344-0.183 0.002-0.001 0.003-0.002 0.005-0.003 0-0 0-0 0-0 0.005-0.003 0.009-0.006 0.014-0.009 0.053-0.030 0.105-0.061 0.155-0.093 0 0 0-0 0-0 0.018-0.011 0.034-0.023 0.052-0.035 0.003-0.002 0.005-0.004 0.008-0.005 0.033-0.022 0.067-0.044 0.099-0.067 0 0 0-0 0-0 0.020-0.014 0.039-0.030 0.059-0.044 0.001-0.001 0.003-0.002 0.004-0.003 0.029-0.022 0.058-0.043 0.086-0.066 0-0 0-0 0-0 0.021-0.017 0.040-0.034 0.060-0.051 0-0 0.001-0.001 0.001-0.001 0.026-0.022 0.052-0.044 0.077-0.066 0.003-0.003 0.007-0.006 0.011-0.009 0.012-0.011 0.023-0.023 0.035-0.034 0.031-0.029 0.062-0.059 0.091-0.089 0.017-0.017 0.032-0.034 0.048-0.052 0.027-0.029 0.053-0.058 0.078-0.087 0.015-0.018 0.030-0.036 0.045-0.054 0.025-0.030 0.048-0.061 0.072-0.092 0.013-0.018 0.027-0.035 0.039-0.053 0.024-0.034 0.047-0.069 0.070-0.103 0.010-0.015 0.020-0.030 0.030-0.045 0.030-0.049 0.060-0.098 0.087-0.149 0.001-0.001 0.002-0.003 0.002-0.004 0.029-0.053 0.056-0.107 0.081-0.162 0.005-0.011 0.009-0.022 0.014-0.033 0.020-0.043 0.038-0.087 0.056-0.13 0.006-0.016 0.012-0.032 0.018-0.049 0.015-0.040 0.029-0.079 0.042-0.12 0.003-0.008 0.006-0.016 0.008-0.024 0.002-0.007 0.003-0.013 0.006-0.020 0.024-0.078 0.047-0.156 0.066-0.236 0.001-0.003 0.001-0.005 0.002-0.008 0.019-0.080 0.034-0.161 0.048-0.243 0.001-0.008 0.003-0.016 0.004-0.025 0.013-0.082 0.023-0.164 0.030-0.247 0.001-0.011 0.002-0.023 0.003-0.034 0.014-0.17 0.018-0.343 0.013-0.518-0-0.010-0-0.019-0.001-0.029-0.003-0.085-0.009-0.17-0.016-0.256-0.001-0.013-0.002-0.025-0.003-0.038-0.008-0.086-0.018-0.173-0.030-0.26s-0.026-0.174-0.042-0.261c-0.002-0.009-0.003-0.018-0.004-0.027-0.001-0.004-0.002-0.008-0.003-0.012-0.027-0.144-0.059-0.287-0.095-0.431-0-0.001-0.001-0.002-0.001-0.003-0.002-0.009-0.005-0.019-0.007-0.029-0-0.002-0.001-0.003-0.001-0.005-0.036-0.14-0.076-0.28-0.12-0.419-0.001-0.005-0.003-0.010-0.004-0.015-0.23-0.726-1.2-4.502-2.43-3.911-0.008 0.004-0.016 0.009-0.025 0.013-0.037 0.019-0.074 0.038-0.11 0.058-0.001 0-0.001 0.001-0.002 0.001-0.014 0.008-0.028 0.017-0.042 0.025-0.002 0.001-0.004 0.002-0.006 0.004-0.027 0.016-0.054 0.033-0.081 0.050-0.001 0-0.001 0.001-0.002 0.001-0.016 0.010-0.031 0.021-0.047 0.032-0.001 0-0.001 0.001-0.002 0.001-0.026 0.018-0.051 0.036-0.076 0.054-0 0-0.001 0.001-0.001 0.001-0.015 0.011-0.030 0.022-0.044 0.033-0 0-0.001 0-0.001 0.001-0.027 0.021-0.054 0.042-0.080 0.064-0.009 0.007-0.018 0.014-0.027 0.022 0 0 0 0-0 0s-0 0-0 0c-0.003 0.003-0.006 0.005-0.009 0.008-0.030 0.025-0.059 0.051-0.087 0.077-0.006 0.006-0.013 0.011-0.019 0.017-0.036 0.033-0.071 0.066-0.105 0.1-0.006 0.005-0.011 0.011-0.017 0.017-0.029 0.029-0.058 0.058-0.086 0.087-0.008 0.009-0.017 0.018-0.025 0.027-0.026 0.027-0.051 0.054-0.076 0.081-0.008 0.009-0.016 0.018-0.025 0.027-0.027 0.029-0.053 0.058-0.080 0.088-0.004 0.004-0.008 0.009-0.012 0.014-0.15 0.168-0.296 0.338-0.448 0.498-0.011 0.012-0.023 0.024-0.034 0.036-0.016 0.016-0.032 0.032-0.047 0.048s-0.033 0.034-0.050 0.050c-0.015 0.015-0.031 0.030-0.047 0.045-0.018 0.017-0.036 0.034-0.054 0.050-0.015 0.014-0.031 0.028-0.046 0.041-0.019 0.017-0.038 0.033-0.057 0.049-0.016 0.013-0.031 0.026-0.047 0.039-0.020 0.016-0.040 0.031-0.060 0.047-0.016 0.012-0.031 0.024-0.047 0.035-0.022 0.016-0.044 0.031-0.067 0.046-0.015 0.010-0.030 0.020-0.045 0.030-0.026 0.017-0.053 0.032-0.081 0.048-0.012 0.007-0.023 0.014-0.035 0.021-0.040 0.022-0.081 0.042-0.123 0.061-0.006 0.003-0.012 0.005-0.017 0.007-0.036 0.016-0.073 0.031-0.111 0.045-0.014 0.005-0.028 0.009-0.042 0.014-0.031 0.010-0.062 0.020-0.094 0.029-0.017 0.005-0.034 0.008-0.051 0.013-0.031 0.007-0.062 0.014-0.093 0.020-0.018 0.004-0.036 0.007-0.055 0.009-0.032 0.005-0.065 0.009-0.098 0.013-0.019 0.002-0.037 0.004-0.057 0.005-0.035 0.003-0.072 0.004-0.108 0.005-0.018 0-0.036 0.001-0.055 0.001-0.042-0-0.086-0.002-0.13-0.004-0.014-0.001-0.027-0.001-0.042-0.002-0.060-0.004-0.121-0.011-0.184-0.020-0.002-0-0.004-0.001-0.007-0.001-0.067-0.010-0.134-0.024-0.2-0.041-0.012-0.003-0.023-0.005-0.035-0.009-0.066-0.018-0.131-0.039-0.195-0.062-0.005-0.002-0.010-0.003-0.015-0.005-0.068-0.026-0.135-0.055-0.201-0.087-0.019-0.009-0.037-0.020-0.056-0.029-0.046-0.024-0.092-0.049-0.137-0.076-0.022-0.013-0.043-0.027-0.065-0.041-0.041-0.026-0.082-0.053-0.122-0.081-0.021-0.015-0.042-0.030-0.063-0.046-0.040-0.030-0.080-0.061-0.119-0.093-0.018-0.015-0.036-0.029-0.054-0.044-0.045-0.038-0.088-0.078-0.131-0.118-0.010-0.010-0.021-0.019-0.031-0.029-0.054-0.053-0.106-0.107-0.157-0.162-0.013-0.014-0.026-0.029-0.039-0.044-0.020-0.023-0.041-0.046-0.061-0.070-0.016-0.019-0.033-0.038-0.049-0.057-0.033-0.039-0.066-0.080-0.1-0.121-0.013-0.017-0.027-0.033-0.040-0.050-0.035-0.044-0.070-0.089-0.105-0.136-0.008-0.011-0.017-0.022-0.025-0.034-0.035-0.047-0.069-0.095-0.104-0.145-0.009-0.013-0.019-0.027-0.028-0.040-0.038-0.055-0.075-0.111-0.112-0.168-0.009-0.014-0.017-0.027-0.026-0.041-0.038-0.060-0.075-0.12-0.111-0.182-0.004-0.007-0.008-0.013-0.011-0.020-0.034-0.059-0.067-0.118-0.099-0.178-0.006-0.012-0.013-0.024-0.019-0.036-0.033-0.063-0.064-0.126-0.094-0.19-0.007-0.015-0.014-0.029-0.020-0.044-0.030-0.065-0.059-0.13-0.085-0.196-0.004-0.009-0.007-0.018-0.011-0.028-0.024-0.061-0.046-0.123-0.067-0.184-0.004-0.012-0.009-0.025-0.013-0.038-0.021-0.065-0.040-0.13-0.057-0.195-0.004-0.016-0.008-0.032-0.012-0.048-0.016-0.065-0.030-0.131-0.041-0.196-0.002-0.012-0.003-0.023-0.005-0.035-0.009-0.060-0.016-0.12-0.021-0.179-0.001-0.012-0.002-0.024-0.003-0.036-0.004-0.064-0.004-0.127-0.002-0.19 0.001-0.016 0.001-0.032 0.002-0.047 0.004-0.062 0.010-0.124 0.020-0.185 0.002-0.012 0.005-0.024 0.007-0.037 0.011-0.056 0.024-0.112 0.041-0.167 0.002-0.007 0.003-0.015 0.005-0.022 0.001-0.003 0.003-0.006 0.004-0.009 0.015-0.046 0.033-0.091 0.052-0.136 0.007-0.016 0.016-0.032 0.024-0.048 0.015-0.030 0.030-0.060 0.047-0.089 0.011-0.019 0.022-0.037 0.034-0.055 0.017-0.027 0.036-0.054 0.055-0.080 0.013-0.018 0.025-0.035 0.039-0.052 0.026-0.032 0.054-0.064 0.083-0.095 0.008-0.009 0.015-0.018 0.023-0.027 0.046-0.047 0.093-0.090 0.142-0.131 0.010-0.008 0.020-0.016 0.030-0.024 0.042-0.034 0.084-0.066 0.128-0.096 0.008-0.006 0.016-0.012 0.024-0.017 0.051-0.034 0.104-0.066 0.157-0.096 0.008-0.004 0.017-0.008 0.025-0.013 0.045-0.024 0.091-0.047 0.138-0.068 0.014-0.006 0.027-0.012 0.041-0.018 0.052-0.022 0.104-0.043 0.157-0.061 0.003-0.001 0.006-0.002 0.009-0.004 0.046-0.016 0.093-0.031 0.14-0.044 0.655-0.187 1.396-0.155 2.062-0.178 0.302-0.011 0.617-0.035 0.875-0.116 0.001-0 0.001-0.001 0.002-0.001 0.029-0.009 0.057-0.019 0.084-0.029 0.006-0.002 0.011-0.004 0.017-0.007 0.026-0.011 0.052-0.022 0.076-0.034 0.001-0.001 0.002-0.001 0.003-0.002 0.026-0.013 0.051-0.027 0.075-0.042 0.003-0.002 0.007-0.004 0.010-0.007 0.023-0.015 0.046-0.031 0.067-0.047 0-0 0.001-0 0.001-0.001 0.022-0.018 0.042-0.036 0.062-0.056 0.002-0.002 0.004-0.005 0.006-0.007 0.018-0.020 0.036-0.040 0.051-0.062 0-0 0-0 0-0.001 0.016-0.023 0.031-0.047 0.043-0.072 0.001-0.003 0.002-0.005 0.004-0.008 0.012-0.025 0.023-0.050 0.032-0.078 0-0.001 0-0.001 0.001-0.002s0-0.001 0-0.001c0.006-0.019 0.011-0.039 0.016-0.060 0-0.001 0.001-0.002 0.001-0.003 0.032-0.152 0.018-0.341-0.059-0.576-0.003-0.008-0.006-0.016-0.008-0.024-0.041-0.124-0.083-0.248-0.127-0.371-0.398-1.104-0.94-2.155-1.61-3.118-0.132-0.191-0.271-0.374-0.416-0.545-0.005-0.006-0.010-0.011-0.014-0.016-0.013-0.015-0.026-0.030-0.039-0.044-0.034-0.039-0.068-0.077-0.103-0.115-0.017-0.018-0.033-0.036-0.050-0.053-0.035-0.037-0.072-0.073-0.108-0.109-0.014-0.014-0.027-0.027-0.041-0.041-0.049-0.046-0.098-0.091-0.149-0.134-0.015-0.013-0.031-0.026-0.046-0.038-0.037-0.031-0.075-0.061-0.113-0.090-0.019-0.015-0.038-0.029-0.058-0.043-0.039-0.028-0.078-0.055-0.118-0.082-0.016-0.011-0.033-0.022-0.049-0.033-0.055-0.035-0.111-0.068-0.168-0.099-0.015-0.008-0.030-0.015-0.046-0.023-0.044-0.023-0.089-0.045-0.135-0.065-0.021-0.009-0.042-0.018-0.063-0.027-0.044-0.018-0.089-0.035-0.134-0.051-0.019-0.007-0.037-0.014-0.056-0.020-0.063-0.020-0.127-0.038-0.192-0.054-0.014-0.003-0.028-0.005-0.042-0.008z"></path>
</symbol>

<symbol id="icon-cloud_1" viewBox="0 0 65 32">
<path fill="#fff" style="fill: var(--color1, #fff)" d="M57.808 18.35c-0.552-3.826-3.049-7.319-6.49-9.080s-7.735-1.744-11.161 0.046c-2.131-5.588-8.026-9.506-14.003-9.308s-11.6 4.497-13.356 10.214c-3.768-0.215-7.305 3.332-7.078 7.1-2.863-1.292-6.309 2.056-5.633 5.123s4.356 4.823 7.407 4.075c7.639 5.636 18.398 6.709 26.999 2.692 6.839 4.523 17.316 1.901 21.219-5.31-0.515 0.952 7.651 2.493 9.231-0.985 1.788-3.939-4.125-6.309-7.133-4.567z"></path>
<path fill="#f5fbff" style="fill: var(--color2, #f5fbff)" d="M0.086 22.445c0.676 3.067 4.356 4.823 7.407 4.075 7.639 5.636 18.398 6.709 26.999 2.692 6.839 4.523 17.316 1.901 21.219-5.31-0.515 0.952 7.651 2.493 9.231-0.985 1.788-3.939-4.126-6.309-7.133-4.567-0.552-3.826-3.049-7.319-6.49-9.080-0.966-0.495-2.001-0.844-3.063-1.058 1.147 1.444 2.1 3.033 2.49 4.82 0.537 2.457-0.248 5.352-2.41 6.639-1.507 0.897-3.37 0.882-5.122 0.8-2.062-0.097-4.521-0.517-5.337-2.414-0.276-0.642-0.306-1.359-0.431-2.047-0.631-3.478-4.073-6.214-7.603-6.045 1.823 0.217 3.011 2.327 2.641 4.125s-1.936 3.168-3.665 3.783c-1.729 0.615-3.614 0.597-5.447 0.498-3.070-0.166-6.46-0.716-8.379-3.118-1.499 1.61-4.176 1.954-6.034 0.775-0.911-0.578-1.55-1.478-1.908-2.485-0.029-0.082-0.048-0.202-0.063-0.342-0.858 1.197-1.355 2.639-1.266 4.119-2.862-1.292-6.308 2.056-5.633 5.123z"></path>
<path fill="#dff2fd" style="fill: var(--color3, #dff2fd)" d="M55.711 23.902c-0.515 0.952 7.651 2.493 9.231-0.985 1.788-3.939-4.126-6.309-7.133-4.567 1.396-0.174 2.933-0.206 4.316 0.053 0.769 0.144 1.622 0.433 1.939 1.148 0.128 0.29 0.149 0.617 0.132 0.933-0.057 1.065-0.564 2.137-1.462 2.713-0.792 0.509-1.778 0.588-2.719 0.628-1.267 0.055-3.037 0.107-4.304 0.076z"></path>
<path fill="#dff2fd" style="fill: var(--color3, #dff2fd)" d="M55.711 23.902c-3.903 7.211-14.38 9.833-21.219 5.31-8.601 4.017-19.36 2.944-26.999-2.692-3.050 0.749-6.731-1.007-7.407-4.075s2.77-6.415 5.633-5.123c-2.063 0.19-3.444 2.66-2.829 4.638s3.233 3.023 5.041 2.010c-0.444-1.119-0.663-2.327-0.641-3.53 0.799 1.744 3.004 2.293 4.922 2.345 1.851 0.050 3.71-0.167 5.5-0.64-0.445 2.256-2.499 4.096-4.791 4.288 3.328 1.868 7.279 2.263 11.094 2.229 2.569-0.023 5.237-0.252 7.467-1.53s3.891-3.863 3.357-6.377c1.874 1.677 2.406 4.672 1.225 6.892 3.073 1.65 6.782 1.914 10.177 1.114s6.796-2.616 9.469-4.858z"></path>
</symbol>

<symbol id="icon-cloud_2" viewBox="0 0 75 32">
<path fill="#fff" style="fill: var(--color1, #fff)" d="M23.596 0.487c4.477-1.244 9.419-0.156 12.921 3.87 4.104-2.028 9.169-1.986 13.239 0.111s7.046 6.195 7.778 10.714c2.395-0.319 4.864-0.635 7.201-0.015s4.532 2.413 4.861 4.807c2.903 0.096 5.948 2.912 4.867 5.607-0.612 1.527-2.299 2.368-3.928 2.597s-3.286-0.014-4.929 0.047c-3.532 0.131-6.839 1.643-10.204 2.723-2.786 0.894-5.855 1.306-8.761 0.781-2.247-0.406-4.456-1.577-5.614-3.545-3.169 2.708-7.554 3.453-11.717 3.648-3.099 0.145-6.282 0.029-9.173-1.097s-5.469-3.415-6.27-6.413c-4.097 1.441-8.851 0.715-12.085-2.224-2.409-2.189-2.314-6.231-0.092-8.549 1.752-1.828 4.583-1.97 7.114-1.912 1.761 0.040 3.629 0.154 5.072 1.164-0.393-2.616 0.655-5.293 2.306-7.361 1.973-2.473 4.602-4.174 7.413-4.956z"></path>
<path fill="#f5fbff" style="fill: var(--color2, #f5fbff)" d="M23.596 0.487c-2.812 0.781-5.44 2.483-7.414 4.955-1.65 2.068-2.699 4.745-2.306 7.361 0.3 2.001 1.007 3.758 2.56 5.054s3.474 2.067 5.398 2.691c-2.809-6.473-2.297-14.288 1.761-20.061z"></path>
<path fill="#f5fbff" style="fill: var(--color2, #f5fbff)" d="M1.783 22.099c3.234 2.939 7.988 3.665 12.085 2.224 0.801 2.997 3.38 5.286 6.27 6.413s6.074 1.242 9.173 1.097c4.163-0.195 8.548-0.939 11.717-3.648 1.158 1.968 3.367 3.139 5.614 3.545 2.906 0.525 5.975 0.113 8.761-0.781 3.365-1.080 6.672-2.593 10.204-2.723 1.644-0.061 3.301 0.182 4.929-0.047s3.315-1.070 3.928-2.597c1.081-2.696-1.964-5.511-4.867-5.607-0.038-0.279-0.105-0.549-0.191-0.81-1.143-0.119-2.314-0.081-3.445 0.078-5.849 0.821-11.049 4.408-16.91 5.136-1.58 0.196-3.218 0.174-4.722-0.349-1.314-0.456-2.475-1.277-3.498-2.219-1.944-1.791-3.442-4.063-4.323-6.555 0.899 3.55-1.905 7.23-5.356 8.453s-7.277 0.559-10.791-0.469c-2.213-0.647-4.671-1.717-5.333-3.925-2.585 2.154-6.754 2.457-9.253 0.204-2.837-2.559-1.404-5.074-0.338-7.717-1.427 0.225-2.759 0.719-3.747 1.75-2.22 2.318-2.316 6.359 0.093 8.549z"></path>
<path fill="#dff2fd" style="fill: var(--color3, #dff2fd)" d="M41.028 28.185c-3.169 2.708-7.554 3.453-11.717 3.648-3.099 0.145-6.282 0.029-9.173-1.097s-5.469-3.415-6.27-6.413c-4.097 1.442-8.851 0.715-12.085-2.224 4.228 1.642 8.826 2.037 13.217 0.901 1.678 3.31 5.266 5.406 8.951 5.843s7.43-0.619 10.701-2.372c-0.052 1.565-1.002 3.069-2.394 3.788 3.1 0.029 6.046-0.591 8.769-2.075z"></path>
<path fill="#dff2fd" style="fill: var(--color3, #dff2fd)" d="M74.464 25.581c-0.612 1.527-2.299 2.368-3.928 2.597s-3.286-0.014-4.929 0.047c-3.532 0.131-6.839 1.643-10.204 2.723-2.787 0.894-5.855 1.306-8.761 0.781-2.247-0.406-4.455-1.577-5.614-3.545 3.53 1.357 7.809 1.307 11.431 0.223 2.060-0.616 3.985-1.612 6.005-2.347 4.994-1.817 10.905-1.997 15.999-0.481z"></path>
</symbol>

<symbol id="icon-cloud_3" viewBox="0 0 108 32">
<path fill="#fff" style="fill: var(--color1, #fff)" d="M55.175 0.737c-5.199 1.554-9.91 5.43-11.234 10.342-2.968-1.169-6.291-1.827-9.347-0.912s-5.688 3.75-5.553 6.937c-2.723-0.581-5.497-1.165-8.268-0.898-2.656 0.256-5.555 1.487-7.136 3.736-0.494 0.703-0.799 1.581-0.639 2.425-2.129-1.447-4.966-1.782-7.476-1.492-1.447 0.167-2.913 0.591-4.021 1.536s-1.781 2.494-1.389 3.896c0.686 2.451 3.815 3.070 6.354 3.238 4.698 0.311 9.395 0.622 14.093 0.932 13.030 0.862 26.143 1.722 39.121 0.272 1.061-0.119 2.3-0.378 2.738-1.352 0.405-0.903-0.154-2.005-0.987-2.54s-1.86-0.645-2.846-0.741c5.947 0.008 11.893 0.016 17.841 0.024 4.759 0.007 9.519 0.013 14.278-0.042 5-0.058 10.107-0.202 14.796-1.936 0.911-0.337 1.919-0.874 2.092-1.83 0.167-0.921-0.585-1.807-1.466-2.122s-1.85-0.203-2.778-0.087c2.367-0.112 3.198-3.697 1.61-5.456s-4.333-1.891-6.633-1.32c-2.3 0.571-4.454 1.704-6.799 2.046-1.716-3.26-5.201-5.666-8.898-5.861-2.207-0.116-9.982 1.267-10.636 4.048 1.246-5.302-2.446-11.032-7.577-12.859-2.839-1.010-6.127-0.913-9.24 0.018z"></path>
<path fill="#f5fbff" style="fill: var(--color2, #f5fbff)" d="M13.638 19.943c-0.494 0.703-0.799 1.581-0.639 2.425-2.129-1.447-4.966-1.782-7.476-1.492-1.447 0.167-2.913 0.591-4.021 1.536s-1.781 2.494-1.389 3.896c0.686 2.451 3.815 3.070 6.354 3.238 4.698 0.311 9.395 0.622 14.093 0.932 13.030 0.862 26.143 1.722 39.121 0.272 1.061-0.119 2.3-0.378 2.738-1.352 0.406-0.903-0.153-2.005-0.987-2.54s-1.861-0.645-2.846-0.741c5.947 0.008 11.894 0.016 17.84 0.024 4.759 0.007 9.519 0.013 14.278-0.042 5-0.057 10.108-0.202 14.797-1.936 0.911-0.337 1.919-0.874 2.092-1.83 0.167-0.921-0.586-1.807-1.467-2.122s-1.849-0.203-2.778-0.087c2.368-0.112 3.199-3.697 1.611-5.456s-4.334-1.891-6.633-1.32c-2.3 0.571-4.455 1.704-6.8 2.046-0.716-1.362-1.745-2.571-2.965-3.535-1.473 2.918-3.821 5.399-6.693 6.964-3.98 2.169-9.435 2.39-13.702 0.859 1.807-1.776 3.19-4.028 3.95-6.442-0.052 0.111-0.095 0.224-0.123 0.34 0.462-1.965 0.244-3.989-0.473-5.851-0.734 2.621-1.747 5.162-3.449 7.261-2.234 2.755-5.912 4.599-9.356 3.75-1.552-0.383-2.943-1.273-4.126-2.348-3.7-3.362-5.279-8.969-3.87-13.665-3.256 1.982-5.849 4.911-6.777 8.353-0.001-0-0.002-0.001-0.002-0.001 0.011 3.334 1.402 6.671 3.857 8.939-5.219 1.633-11.323 1.547-16.496-0.226 1.542 2.051 3.757 3.587 6.219 4.312-5.206 1.839-11.077 1.724-16.207-0.317-1.428-0.568-2.92-1.412-3.427-2.863-0.514-1.47 0.189-3.145 1.321-4.216 0.119-0.113 0.243-0.218 0.369-0.318-2.293 0.466-4.592 1.64-5.937 3.554z"></path>
<path fill="#dff2fd" style="fill: var(--color3, #dff2fd)" d="M103.349 20.123c2.367-0.112 3.199-3.697 1.611-5.456s-4.334-1.891-6.633-1.32c0.763 0.004 1.714 0.096 2.383 0.46s1.217 1.010 1.321 1.766c0.056 0.405-0.015 0.818-0.143 1.207-0.567 1.731-2.187 2.93-3.895 3.562-2.561 0.947-5.372 0.853-8.1 0.748 4.512 0.602 8.909-0.752 13.456-0.966z"></path>
<path fill="#dff2fd" style="fill: var(--color3, #dff2fd)" d="M61.432 26.858c0.833 0.535 1.393 1.637 0.987 2.54-0.438 0.974-1.676 1.234-2.738 1.352-12.978 1.451-26.091 0.59-39.121-0.272-4.698-0.311-9.395-0.622-14.093-0.932-2.539-0.168-5.669-0.787-6.354-3.238-0.392-1.402 0.281-2.951 1.389-3.896-0.516 1.011-0.072 2.255 0.704 3.082s1.869 1.278 2.951 1.621c4.932 1.564 10.226 1.363 15.396 1.147-1.649-0.226-3.162-1.284-3.941-2.755 6.554 2.92 13.94 3.162 21.112 3.358 4.359 0.119 8.773 0.233 13.021-0.752-2.036 0.037-4.079-0.587-5.747-1.756 5.532 1.138 10.975 1.948 16.434 0.5z"></path>
<path fill="#dff2fd" style="fill: var(--color3, #dff2fd)" d="M58.587 26.117c5.947 0.008 11.894 0.016 17.841 0.024 4.759 0.007 9.518 0.013 14.277-0.042 5-0.057 10.108-0.202 14.797-1.936 0.911-0.337 1.919-0.874 2.092-1.83 0.167-0.921-0.586-1.807-1.467-2.122 0.023 0.728-0.612 1.334-1.227 1.723s-1.345 0.55-2.059 0.691c-8.057 1.59-16.334 1.559-24.546 1.521-3.201-0.014-6.615-0.092-9.265-1.888-3.088 2.244-6.628 3.786-10.444 3.859z"></path>
</symbol>

<symbol id="icon-arrow-top-right" viewBox="0 0 34 32">
<path d="M9.333 24l-1.867-1.867 12.8-12.8h-11.467v-2.667h16v16h-2.667v-11.467l-12.8 12.8z"></path>
</symbol>

</defs>
</svg>