<svg aria-hidden="true" style="position: absolute; width: 0; height: 0; overflow: hidden;" version="1.1" xmlns="http://www.w3.org/2000/svg" xmlns:xlink="http://www.w3.org/1999/xlink">
<defs>

<symbol id="icon-rocket" viewBox="0 0 24 32">
<path fill="#650e68" style="fill: var(--color1, #650e68)" d="M6.762 21.057c0 0 1.227 1.688-0.069 3.075s-3.212 0.564-3.833 1.28c0.621-0.716-0.509-2.446 0.678-3.924s3.077-0.554 3.077-0.554z"></path>
<path fill="#efaf30" style="fill: var(--color2, #efaf30)" d="M6.396 21.331c-0.332-0.13-1.317-0.421-1.96 0.379-0.487 0.606-0.42 1.287-0.349 2.008 0.008 0.083 0.016 0.166 0.024 0.25 0.085-0.006 0.17-0.011 0.254-0.017 0.735-0.045 1.43-0.088 1.961-0.657 0.7-0.749 0.256-1.656 0.069-1.963z"></path>
<path fill="#ffec7b" style="fill: var(--color3, #ffec7b)" d="M6.282 21.464c-0.183-0.072-0.725-0.232-1.078 0.209-0.268 0.333-0.231 0.708-0.192 1.105 0.005 0.046 0.009 0.091 0.013 0.137 0.047-0.003 0.093-0.006 0.14-0.009 0.405-0.025 0.787-0.049 1.079-0.361 0.385-0.412 0.141-0.911 0.038-1.080z"></path>
<path fill="#060646" style="fill: var(--color4, #060646)" d="M2.8 25.622c-0.030-0.009-0.058-0.023-0.084-0.044-0.069-0.058-0.094-0.147-0.071-0.227 0.008-0.029 0.023-0.057 0.044-0.081 0.2-0.23 0.156-0.67 0.106-1.179-0.079-0.807-0.178-1.812 0.567-2.74 0.534-0.665 1.3-0.97 2.215-0.881 0.674 0.065 1.189 0.32 1.21 0.331 0.032 0.016 0.059 0.039 0.080 0.067 0.014 0.019 0.352 0.479 0.525 1.123 0.234 0.874 0.049 1.666-0.534 2.29-0.813 0.87-1.838 0.933-2.661 0.984-0.519 0.032-0.967 0.060-1.167 0.29-0.058 0.067-0.149 0.090-0.23 0.067zM6.104 21.009c-0.61-0.174-1.662-0.292-2.39 0.615-0.636 0.791-0.55 1.661-0.474 2.429 0.031 0.32 0.061 0.618 0.034 0.881 0.261-0.067 0.564-0.086 0.89-0.106 0.783-0.048 1.671-0.103 2.364-0.845 1.053-1.127 0.188-2.551 0.011-2.817-0.076-0.034-0.231-0.099-0.435-0.157z"></path>
<path fill="#060646" style="fill: var(--color4, #060646)" d="M3.030 25.554l-2.142 2.201c-0.038 0.039-0.104-0.013-0.069-0.058l1.87-2.428c0.197-0.234 0.546 0.056 0.341 0.286z"></path>
<path fill="#650e68" style="fill: var(--color1, #650e68)" d="M7.923 13.696c0 0-4.8-1.651-4.281 3.981 0 0 1.331-2.335 3.448-1.376l0.833-2.605z"></path>
<path fill="#fff" style="fill: var(--color5, #fff)" opacity="0.6" d="M7.767 14.183l0.156-0.488c0 0-4.8-1.651-4.281 3.981 0 0 0.005-0.009 0.016-0.026-0.128-4.298 3.233-3.696 4.109-3.467z"></path>
<path fill="#060646" style="fill: var(--color4, #060646)" d="M3.582 17.886c-0.089-0.025-0.154-0.102-0.162-0.193-0.172-1.864 0.209-3.165 1.133-3.868 1.359-1.035 3.357-0.365 3.442-0.336 0.115 0.039 0.177 0.161 0.141 0.274l-0.833 2.605c-0.019 0.059-0.063 0.108-0.121 0.133s-0.125 0.024-0.183-0.002c-0.792-0.359-1.558-0.26-2.277 0.294-0.56 0.431-0.882 0.986-0.885 0.992-0.048 0.083-0.145 0.126-0.241 0.105-0.005-0.001-0.009-0.002-0.014-0.003zM7.642 13.842c-0.518-0.132-1.881-0.382-2.815 0.331-0.696 0.531-1.031 1.495-0.999 2.868 0.156-0.185 0.359-0.394 0.605-0.585 0.782-0.607 1.647-0.76 2.517-0.449l0.693-2.166z"></path>
<path fill="#650e68" style="fill: var(--color1, #650e68)" d="M13.822 18.64c0 0 2.418 4.398-3.319 4.787 0 0 2.133-1.662 0.835-3.566l2.484-1.221z"></path>
<path fill="#060646" style="fill: var(--color4, #060646)" opacity="0.3" d="M10.669 23.281c0.475-0.443 1.741-1.85 0.669-3.42l1.737-0.854c0.396 0.981 1.087 3.594-2.406 4.275z"></path>
<path fill="#060646" style="fill: var(--color4, #060646)" d="M10.444 23.636c-0.066-0.019-0.121-0.066-0.147-0.131-0.036-0.090-0.009-0.191 0.067-0.25 0.005-0.004 0.511-0.404 0.855-1.016 0.442-0.786 0.42-1.546-0.065-2.258-0.036-0.052-0.047-0.117-0.031-0.177s0.057-0.111 0.114-0.139l2.484-1.221c0.108-0.053 0.24-0.011 0.297 0.094 0.043 0.077 1.032 1.911 0.208 3.395-0.56 1.008-1.806 1.584-3.705 1.713-0.027 0.002-0.053-0.001-0.078-0.008zM11.654 19.951c0.45 0.795 0.434 1.659-0.052 2.514-0.153 0.269-0.331 0.499-0.491 0.68 1.386-0.187 2.3-0.666 2.723-1.427 0.568-1.023 0.101-2.303-0.114-2.784l-2.066 1.016z"></path>
<path fill="#feb100" style="fill: var(--color6, #feb100)" d="M9.534 17.713l2.124 1.78-1.875 1.157c-0.469 0.289-1.078 0.243-1.504-0.113l-1.382-1.158c-0.426-0.357-0.569-0.941-0.352-1.442l0.865-2.004 2.124 1.78z"></path>
<path fill="#060646" style="fill: var(--color4, #060646)" opacity="0.3" d="M9.759 17.902l-1.681 1.038c-0.469 0.289-1.078 0.243-1.504-0.113l-0.081-0.068c0.067 0.236 0.204 0.453 0.404 0.621l1.382 1.158c0.426 0.357 1.035 0.403 1.504 0.113l1.875-1.157-1.898-1.591z"></path>
<path fill="#060646" style="fill: var(--color4, #060646)" d="M8.698 21.002c-0.202-0.058-0.394-0.158-0.563-0.299l-1.382-1.158c-0.503-0.422-0.67-1.103-0.414-1.695l0.865-2.004c0.028-0.064 0.084-0.11 0.153-0.126s0.141 0.002 0.196 0.048l2.124 1.78c0.001 0.001 0.001 0.001 0.002 0.002l2.122 1.778c0.054 0.045 0.083 0.113 0.079 0.182s-0.043 0.132-0.102 0.169l-1.875 1.157c-0.368 0.227-0.805 0.28-1.204 0.166zM7.497 16.292l-0.748 1.732c-0.179 0.415-0.063 0.893 0.291 1.189l1.382 1.158c0.353 0.296 0.851 0.334 1.24 0.094l1.621-1-1.893-1.586c-0.001-0.001-0.001-0.001-0.002-0.002l-1.891-1.585z"></path>
<path fill="#fff" style="fill: var(--color5, #fff)" d="M11.688 20.175c-0.415 0.215-0.925 0.159-1.287-0.144l-3.333-2.793c-0.361-0.303-0.499-0.789-0.348-1.226 0.549-1.596 2.138-5.499 5.496-8.993 0.705-0.733 1.423-1.308 2.131-1.754 2.687-1.697 5.228-1.559 6.384-1.367 0.418 0.069 0.766 0.361 0.902 0.756 0.376 1.092 0.918 3.536-0.361 6.414-0.336 0.758-0.799 1.546-1.424 2.347-2.976 3.815-6.645 5.975-8.16 6.761z"></path>
<path fill="#650e68" style="fill: var(--color1, #650e68)" d="M21.272 11.067c-2.050-5.325-6.925-5.802-6.925-5.802 2.687-1.697 5.228-1.559 6.384-1.367 0.418 0.069 0.766 0.361 0.902 0.756 0.376 1.092 0.918 3.536-0.361 6.414z"></path>
<path fill="#fff" style="fill: var(--color5, #fff)" opacity="0.6" d="M21.584 4.537c-0.083-0.035-0.171-0.062-0.262-0.077-1.156-0.192-3.696-0.331-6.384 1.367-0.708 0.447-1.425 1.021-2.13 1.754-2.8 2.913-4.37 6.11-5.133 8.017-0.152 0.381-0.272 0.71-0.364 0.976-0.113 0.328-0.063 0.683 0.12 0.968l-0.363-0.305c-0.361-0.303-0.499-0.789-0.348-1.226 0.549-1.596 2.138-5.499 5.496-8.993 0.706-0.733 1.423-1.308 2.131-1.754 2.687-1.697 5.229-1.559 6.384-1.367 0.376 0.062 0.695 0.304 0.854 0.64z"></path>
<path fill="#060646" style="fill: var(--color4, #060646)" opacity="0.3" d="M20.707 10.628c-0.336 0.758-0.799 1.546-1.424 2.347-2.977 3.815-6.645 5.976-8.159 6.762-0.341 0.177-0.745 0.17-1.079-0.005l-2.612-2.189c-0.184-0.285-0.233-0.64-0.12-0.968 0.092-0.266 0.211-0.595 0.364-0.976l1.96 1.642c0.362 0.303 0.872 0.36 1.287 0.145 0.791-0.411 2.17-1.196 3.73-2.397 1.192 0.126 2.39-0.325 3.177-1.233 0.656-0.756 0.933-1.707 0.851-2.632 0.135-0.163 0.269-0.33 0.402-0.5 0.625-0.801 1.088-1.589 1.424-2.347 0.524-1.178 0.742-2.284 0.791-3.253 0.29 1.277 0.434 3.302-0.591 5.605z"></path>
<path fill="#060646" style="fill: var(--color4, #060646)" d="M21.212 11.278c-0.066-0.019-0.122-0.067-0.149-0.135-1.031-2.678-2.804-4.074-4.109-4.772-1.421-0.76-2.615-0.887-2.627-0.888-0.123-0.012-0.213-0.119-0.202-0.239s0.119-0.208 0.241-0.196c0.052 0.005 1.281 0.133 2.779 0.93 1.38 0.734 3.252 2.2 4.335 5.015 0.044 0.113-0.014 0.239-0.129 0.28-0.046 0.017-0.095 0.017-0.139 0.005z"></path>
<path fill="#060646" style="fill: var(--color4, #060646)" d="M10.774 20.472c-0.186-0.053-0.362-0.145-0.517-0.275l-3.333-2.793c-0.434-0.364-0.597-0.938-0.416-1.464 0.532-1.547 2.139-5.529 5.545-9.072 3.466-3.605 7.247-3.429 8.712-3.186 0.501 0.083 0.915 0.429 1.078 0.903 0.476 1.384 1.253 5.027-1.818 8.963-3.018 3.868-6.762 6.058-8.231 6.821-0.321 0.167-0.685 0.198-1.020 0.103zM20.801 4.137c-0.034-0.010-0.069-0.018-0.105-0.024-1.395-0.232-4.997-0.397-8.317 3.057-3.347 3.481-4.925 7.394-5.448 8.914-0.122 0.355-0.012 0.744 0.281 0.989l3.333 2.793c0.293 0.245 0.7 0.291 1.038 0.116 1.444-0.749 5.122-2.901 8.088-6.702 2.942-3.771 2.205-7.242 1.751-8.559-0.098-0.285-0.331-0.502-0.621-0.584z"></path>
<path fill="#650e68" style="fill: var(--color1, #650e68)" d="M10.873 16.167c0 0 0.347 1.397-0.642 2.606s-3.158 1.778-3.158 1.778 0.227-2.197 1.285-3.348c1.058-1.151 2.515-1.036 2.515-1.036z"></path>
<path fill="#fff" style="fill: var(--color5, #fff)" opacity="0.6" d="M8.449 17.813c0.966-1.051 2.263-1.046 2.483-1.038 0.001-0.367-0.059-0.608-0.059-0.608s-1.457-0.115-2.515 1.036c-1.058 1.151-1.285 3.348-1.285 3.348s0.074-0.020 0.201-0.059c0.151-0.741 0.488-1.931 1.175-2.68z"></path>
<path fill="#060646" style="fill: var(--color4, #060646)" d="M7.013 20.762c-0.030-0.009-0.059-0.024-0.084-0.044-0.056-0.047-0.086-0.118-0.078-0.19 0.010-0.093 0.247-2.281 1.34-3.471 1.118-1.216 2.633-1.111 2.697-1.106 0.097 0.008 0.178 0.076 0.201 0.169 0.015 0.061 0.361 1.516-0.684 2.793-1.022 1.25-3.181 1.827-3.273 1.851-0.040 0.010-0.081 0.010-0.12-0.001zM10.684 16.385c-0.398 0.014-1.398 0.136-2.161 0.966-0.756 0.823-1.072 2.243-1.181 2.888 0.631-0.208 2.007-0.739 2.713-1.604 0.712-0.872 0.677-1.862 0.628-2.251z"></path>
<path fill="#feb100" style="fill: var(--color6, #feb100)" d="M14.192 14.266c1.622 0.462 3.303-0.449 3.755-2.035s-0.496-3.247-2.118-3.709-3.303 0.449-3.755 2.035c-0.452 1.586 0.496 3.247 2.118 3.709z"></path>
<path fill="#fff" style="fill: var(--color5, #fff)" opacity="0.6" d="M12.893 10.084c1.085-1.251 3.008-1.391 4.295-0.312 0.355 0.298 0.625 0.658 0.806 1.048-0.134-0.636-0.476-1.237-1.020-1.693-1.288-1.079-3.211-0.94-4.295 0.312-0.785 0.906-0.915 2.146-0.439 3.171-0.182-0.869 0.026-1.804 0.653-2.527z"></path>
<path fill="#060646" style="fill: var(--color4, #060646)" d="M14.13 14.477c-0.445-0.127-0.863-0.347-1.227-0.652-0.668-0.56-1.077-1.339-1.152-2.195s0.194-1.684 0.757-2.333c1.162-1.341 3.23-1.491 4.609-0.335s1.556 3.187 0.394 4.528c-0.563 0.649-1.352 1.042-2.223 1.105-0.396 0.029-0.788-0.012-1.159-0.118zM15.774 8.733c-1.034-0.295-2.189 0.002-2.924 0.85-0.486 0.561-0.719 1.277-0.654 2.015s0.418 1.412 0.995 1.896c0.577 0.484 1.309 0.72 2.061 0.666s1.434-0.394 1.92-0.954c1.004-1.158 0.851-2.913-0.341-3.911-0.319-0.267-0.68-0.454-1.057-0.561z"></path>
<path fill="#8fe3fa" style="fill: var(--color7, #8fe3fa)" d="M15.914 12.976c0.885-0.48 1.197-1.577 0.698-2.451s-1.621-1.194-2.505-0.714-1.197 1.577-0.698 2.451c0.499 0.874 1.621 1.194 2.505 0.714z"></path>
<path fill="#060646" style="fill: var(--color4, #060646)" opacity="0.3" d="M13.784 10.979c0.653-0.754 1.816-0.838 2.591-0.188 0.206 0.173 0.364 0.38 0.473 0.606-0.005-0.508-0.227-1.013-0.653-1.37-0.776-0.65-1.938-0.566-2.591 0.188-0.48 0.553-0.553 1.316-0.251 1.94-0.004-0.417 0.137-0.835 0.431-1.175z"></path>
<path fill="#060646" style="fill: var(--color4, #060646)" d="M14.454 13.336c-0.275-0.079-0.539-0.214-0.772-0.409-0.421-0.352-0.678-0.844-0.725-1.383s0.122-1.062 0.477-1.471c0.354-0.409 0.852-0.656 1.401-0.696s1.083 0.132 1.504 0.485c0.87 0.729 0.981 2.009 0.249 2.854-0.537 0.619-1.379 0.835-2.134 0.62zM15.447 9.871c-0.591-0.169-1.252 0.001-1.673 0.486-0.574 0.662-0.487 1.666 0.195 2.237s1.703 0.497 2.278-0.165c0.574-0.662 0.487-1.666-0.195-2.237-0.182-0.153-0.389-0.259-0.605-0.321z"></path>
</symbol>

</defs>
</svg>